<?xml version="1.0" encoding="utf-8"?>
<!-- Generator: Adobe Illustrator 21.0.0, SVG Export Plug-In . SVG Version: 6.00 Build 0)  -->
<svg version="1.1" id="Capa_1" xmlns="http://www.w3.org/2000/svg" xmlns:xlink="http://www.w3.org/1999/xlink" x="0px" y="0px"
	 viewBox="0 0 500 468.7" style="enable-background:new 0 0 500 468.7;" xml:space="preserve">
<style type="text/css">
	.st0{fill:#F1F1F2;}
	.st1{fill:#E2DCCF;}
	.st2{fill:#1B684E;}
	.st3{fill:#4EA58A;}
	.st4{fill:#E2321A;}
	.st5{fill:#FFFFFF;}
	.st6{fill:#404041;}
	.st7{fill:#B27042;}
	.st8{fill:#DD8B52;}
	.st9{fill:#A6A8AB;}
	.st10{fill:#E6E7E8;}
	.st11{fill:#808184;}
	.st12{fill:#58595B;}
	.st13{fill:#3A435E;}
	.st14{fill:#EDE9D1;}
	.st15{clip-path:url(#SVGID_2_);}
	.st16{fill:#FF7D6F;}
	.st17{fill:#FFA07F;}
	.st18{fill:#CF4A57;}
	.st19{fill:#FFBF90;}
	.st20{fill:#FFD39C;}
	.st21{fill:#55062C;}
	.st22{fill:#FC5B68;}
	.st23{fill:#161818;}
	.st24{fill:#FFF0E7;}
	.st25{fill:#3F0727;}
	.st26{fill:#383838;}
	.st27{fill:#282828;}
	.st28{fill:#FDE4D9;}
	.st29{fill:#929E76;}
	.st30{enable-background:new    ;}
	.st31{fill:#6D6E70;}
	.st32{fill:#D0D2D3;}
	.st33{fill:#929497;}
	.st34{fill:#F79E80;}
	.st35{fill:#CE4A57;}
	.st36{fill:#FBBD8E;}
	.st37{fill:#3D3D3D;}
	.st38{fill:#F05A28;}
	.st39{fill:#BBBDBF;}
	.st40{fill:#254F79;}
	.st41{fill:#5DB59D;}
	.st42{fill:#FFF0E9;}
	.st43{fill:#EADBD6;}
	.st44{fill:#F48040;}
	.st45{fill:#446A98;}
	.st46{fill:#5FB59D;}
	.st47{fill:#005062;}
	.st48{fill:#016677;}
	.st49{fill:#D94562;}
	.st50{fill:#456997;}
	.st51{fill:#FF8035;}
	.st52{fill:#F6921E;}
	.st53{fill:#0098C9;}
	.st54{fill:#DD2026;}
</style>
<title>res1_2</title>
<g>
	<g id="Capa_2">
		<g id="OBJECTS">
			<ellipse class="st0" cx="251.1" cy="391.8" rx="248.9" ry="50.8"/>
			<path class="st1" d="M404.2,347.7c-2.9-4.9-9.2-9-14.1-9H112c-4.8,0-11.2,4-14.1,9L67,400.3c-2.9,4.9-1.3,9,3.6,9h361
				c4.9,0,6.5-4,3.6-9L404.2,347.7z"/>
			<ellipse class="st1" cx="56.3" cy="335.9" rx="33.5" ry="5"/>
			<path class="st2" d="M39.1,287.4c-1.4-1.6-2.7-3.2-3.9-5s-1.7-4-1.3-6.1c0.1-0.7,0.5-1.3,0.9-1.9c1.6-1.6,4.3-0.5,6.2,0.5
				c-3.7-5-6.4-10.6-8.1-16.6c-0.2-0.6-0.3-1.2-0.2-1.8c0.4-1.2,1.6-1.9,2.8-1.7s2.3,0.6,3.3,1.3c-2.1-4.6-4.2-9.6-3.1-14.4
				c0.2-1.3,0.9-2.5,1.9-3.2c1.6-0.8,3.5-0.3,4.3,1.3c0.1,0.2,0.2,0.5,0.3,0.8c-1.2-2.8-1.5-5.9-0.9-8.9c0.6-2.9,2.9-6.1,5.8-5.6
				c1.1,0.2,2.1,0.9,2.9,1.8c1.1,1.4,2,3,2.4,4.8c1.7,5.5,2,11.3,0.7,16.9c1.3-1.6,2.6-3.3,4.6-4.1s4.6-0.1,5.2,1.9
				c0.2,0.9,0.2,1.8,0,2.7c-1.3,7-4.2,13.6-8.7,19.2c2.3-1.7,5.4-3.3,7.8-1.7c1.5,1.2,2.2,3.1,1.7,5c-0.5,1.8-1.4,3.5-2.6,4.9
				c-1.7,2.2-3.6,4.3-5.6,6.3c2.5-0.4,5.4-0.6,7.1,1.3c1.7,1.9,1.1,4.5,0.4,6.8c-0.5,1.7-1.3,3.4-2.3,4.9c-1.2,1.4-2.4,2.7-3.8,3.9
				c-3.4,3.4-6,7.5-7.4,12.1c0.1-0.4-2.5-4.8-2.6-5.9c-0.2-2.2-0.6-4.5-1.1-6.7C44.4,295.5,42.1,291.2,39.1,287.4z"/>
			<path class="st2" d="M81.6,292.5c1.7-1.2,3.4-2.6,4.9-4c1.6-1.5,2.5-3.5,2.7-5.6c0-0.7-0.1-1.4-0.5-2c-1.2-1.9-4-1.5-6.2-0.9
				c4.7-4,8.7-8.8,11.6-14.3c0.3-0.5,0.5-1.1,0.6-1.7c-0.1-1.2-1.1-2.2-2.3-2.3c-1.2-0.1-2.4,0.1-3.5,0.5c3.1-4,6.3-8.3,6.4-13.4
				c0.1-1.3-0.3-2.6-1.1-3.6c-1.3-1.2-3.4-1-4.5,0.3c-0.2,0.2-0.3,0.5-0.5,0.7c1.8-2.4,2.8-5.4,2.9-8.4s-1.4-6.6-4.4-6.8
				c-1.2,0-2.3,0.4-3.2,1.1c-1.4,1.1-2.6,2.5-3.5,4.1c-3,4.9-4.5,10.6-4.5,16.3c-0.9-1.9-1.8-3.9-3.5-5s-4.4-1.1-5.5,0.6
				c-0.4,0.8-0.7,1.7-0.6,2.7c-0.4,7.1,1,14.2,4,20.7c-1.8-2.2-4.5-4.4-7.2-3.4c-1.7,0.8-2.8,2.6-2.8,4.5c0.1,1.9,0.6,3.7,1.4,5.4
				c1.2,2.6,2.5,5,4,7.4c-2.3-0.9-5.2-1.8-7.2-0.4s-2.1,4.2-1.9,6.5c0.1,1.8,0.5,3.6,1.1,5.2c0.8,1.6,1.8,3.2,2.8,4.7
				c2.6,4.1,4.1,8.7,4.5,13.5c0-0.4,3.5-4.1,3.9-5.1c0.7-2.1,1.6-4.2,2.6-6.2C74.6,299.3,77.8,295.6,81.6,292.5z"/>
			<path class="st3" d="M75.9,288.7c1.4-1.6,2.7-3.3,3.8-5.1c1.2-1.8,1.6-4,1.3-6.1c-0.1-0.7-0.5-1.3-1-1.9
				c-1.6-1.5-4.3-0.5-6.2,0.6c3.6-5,6.3-10.7,7.8-16.6c0.2-0.6,0.3-1.2,0.2-1.8c-0.4-1.1-1.5-1.8-2.8-1.7c-1.2,0.2-2.3,0.7-3.2,1.4
				c2-4.6,4.1-9.6,3-14.5c-0.2-1.3-0.9-2.4-1.9-3.2c-1.6-0.8-3.5-0.3-4.4,1.3c-0.2,0.3-0.3,0.6-0.3,0.9c1.2-2.8,1.5-5.9,0.8-8.9
				c-0.6-2.9-3-6-5.9-5.5c-1.1,0.3-2.1,0.9-2.8,1.8c-1.1,1.4-1.9,3-2.4,4.8c-1.7,5.5-1.8,11.4-0.4,16.9c-1.3-1.6-2.7-3.3-4.6-4
				s-4.6,0-5.2,1.9c-0.2,0.9-0.2,1.8,0,2.7c1.4,7,4.4,13.6,8.9,19.1c-2.3-1.7-5.4-3.2-7.8-1.6c-1.5,1.2-2.1,3.2-1.7,5
				c0.5,1.8,1.4,3.5,2.7,4.9c1.7,2.2,3.6,4.3,5.6,6.2c-2.5-0.4-5.4-0.5-7.1,1.4s-1.1,4.6-0.3,6.8c0.5,1.7,1.3,3.3,2.3,4.8
				c1.2,1.4,2.5,2.7,3.9,3.9c3.5,3.3,6.1,7.4,7.6,12c-0.1-0.4,2.4-4.9,2.6-5.9c0.2-2.2,0.5-4.5,1-6.7
				C70.7,297,72.9,292.6,75.9,288.7z"/>
			<path class="st3" d="M30.2,292.3c-1.7-1.3-3.3-2.7-4.8-4.3c-1.5-1.5-2.4-3.5-2.5-5.7c0-0.7,0.2-1.4,0.6-2
				c1.3-1.8,4.1-1.3,6.2-0.6c-4.5-4.2-8.3-9.2-11-14.7c-0.3-0.5-0.5-1.1-0.5-1.7c0.2-1.2,1.2-2.2,2.4-2.3c1.2-0.1,2.4,0.2,3.5,0.7
				c-2.9-4.1-5.9-8.6-5.8-13.6c-0.1-1.3,0.4-2.6,1.3-3.5c1.4-1.1,3.4-1,4.5,0.4c0.2,0.2,0.4,0.5,0.5,0.8c-1.7-2.5-2.6-5.5-2.6-8.5
				s1.7-6.5,4.7-6.6c1.2,0,2.3,0.5,3.2,1.2c1.3,1.2,2.4,2.6,3.2,4.2c2.7,5.1,4.1,10.8,3.8,16.5c1-1.8,2-3.8,3.7-4.9s4.5-1,5.5,0.8
				c0.4,0.8,0.6,1.8,0.5,2.7c0.1,7.1-1.6,14.2-4.9,20.5c1.9-2.1,4.7-4.2,7.3-3.1c1.7,0.9,2.7,2.7,2.6,4.6c-0.1,1.9-0.7,3.7-1.6,5.3
				c-1.3,2.5-2.7,4.9-4.3,7.2c2.4-0.8,5.2-1.6,7.2-0.1s2,4.3,1.7,6.6c-0.2,1.8-0.6,3.5-1.3,5.2c-0.9,1.6-1.9,3.2-3,4.6
				c-2.7,3.9-4.4,8.5-5,13.3c0-0.4-3.3-4.3-3.7-5.3c-0.6-2.2-1.4-4.3-2.3-6.3C37,299.3,34,295.4,30.2,292.3z"/>
			<path class="st4" d="M76.3,305.9v15.6c0,9.2-7.5,16.7-16.7,16.7l0,0h-6.5c-9.2,0-16.7-7.5-16.7-16.7l0,0v-15.6H76.3z"/>
			<rect x="36.5" y="311.3" class="st5" width="39.9" height="2.4"/>
			<rect x="36.5" y="318" class="st5" width="39.9" height="2.4"/>
			<polygon class="st6" points="84,405.9 76.1,404.9 93.8,280 110,282.1 			"/>
			<polygon class="st6" points="115.2,345.6 108.6,344.8 123.3,241.1 136.8,242.8 			"/>
			<polygon class="st6" points="416,405.9 424,404.9 406.2,280 390,282.1 			"/>
			<polygon class="st6" points="384.8,345.6 391.4,344.8 376.7,241.1 363.3,242.8 			"/>
			<path class="st7" d="M388.3,252.8c-2.9-4.1-9.2-7.4-14.1-7.4H126.1c-4.8,0-11.2,3.4-14.1,7.4l-31.9,38
				c-2.9,4.1-0.3,13.3,4.5,13.3h331c4.9,0,7.2-9.6,4.3-13.7L388.3,252.8z"/>
			<path class="st8" d="M388.3,245.2c-2.9-4.1-9.2-7.4-14.1-7.4H126.1c-4.8,0-11.2,3.4-14.1,7.4L81.1,289c-2.9,4.1-1.3,7.5,3.6,7.5
				h331c4.9,0,6.5-3.4,3.6-7.5L388.3,245.2z"/>
			<path class="st9" d="M272.9,219.2h-41.5c0,0,1.5,25.8-11.6,29h64.6C271.4,245,272.9,219.2,272.9,219.2z"/>
			<rect x="220.4" y="248.2" class="st10" width="64" height="5"/>
			<path class="st0" d="M26.9,18h445.4c8,0,14.3,3.9,14.3,8.7v189.7c0,4.9-6.4,8.9-14.3,8.9H26.9c-8,0-14.3-3.9-14.3-8.9V26.7
				C12.9,22,19.2,18,26.9,18z"/>
			<path class="st11" d="M178,110.5h149.1c1.6,0,2.9,1.3,2.9,2.9V197c0,1.6-1.3,2.9-2.9,2.9H178c-1.6,0-2.9-1.3-2.9-2.9v-83.6
				C175.1,111.8,176.4,110.5,178,110.5z"/>
			<path class="st12" d="M327.1,106.7H178c-3.7,0-6.6,3-6.7,6.7V197c0,3.7,3,6.6,6.7,6.7h149.1c3.7,0,6.6-3,6.7-6.7v-83.6
				C333.7,109.7,330.7,106.7,327.1,106.7L327.1,106.7z M329.9,197c0,1.6-1.3,2.9-2.9,2.9H178c-1.6,0-2.9-1.3-2.9-2.9v-83.6
				c0-1.6,1.3-2.9,2.8-2.9l0,0H327c1.6,0,2.9,1.3,2.9,2.9V197z"/>
			<path class="st12" d="M258.4,213.8c0,3.3-2.6,5.9-5.9,5.9c-3.3,0-5.9-2.6-5.9-5.9c0-3.3,2.6-5.9,5.9-5.9v5.9H258.4z"/>
			<rect x="182.8" y="114.4" class="st4" width="139.5" height="17.6"/>
			<rect x="182.8" y="131.9" class="st13" width="37" height="64.2"/>
			<rect x="223.1" y="134.9" class="st14" width="99.1" height="61.2"/>
			<path class="st5" d="M231.9,138.9h21.3c1.9,0,3.5,1.6,3.5,3.5v12c0,1.9-1.6,3.5-3.5,3.5h-21.3c-1.9,0-3.5-1.6-3.5-3.5v-12
				C228.4,140.5,230,138.9,231.9,138.9z"/>
			<polygon class="st5" points="253.3,150.8 261.3,150.1 262,154.4 268.8,155.9 259.9,158.4 258.7,154.8 255.7,156.4 			"/>
			<rect x="232.1" y="151.9" class="st11" width="21.3" height="0.8"/>
			<rect x="241.1" y="141.7" class="st11" width="12.2" height="0.8"/>
			<rect x="241.1" y="144.1" class="st11" width="12.2" height="0.8"/>
			<rect x="241.1" y="146.5" class="st11" width="12.2" height="0.8"/>
			<rect x="241.1" y="148.9" class="st11" width="12.2" height="0.8"/>
			<rect x="232.1" y="154.3" class="st11" width="21.3" height="0.8"/>
			<rect x="231.8" y="141.7" class="st11" width="7.9" height="8"/>
			<g>
				<g>
					<defs>
						<rect id="SVGID_1_" x="220.1" y="134.9" width="102.1" height="61.2"/>
					</defs>
					<clipPath id="SVGID_2_">
						<use xlink:href="#SVGID_1_"  style="overflow:visible;"/>
					</clipPath>
					<g class="st15">
						<path class="st16" d="M272.5,153.7c-0.1,0.7,0,1.5,0.4,2.1c0.5,1.2,0.9,2.6,1.4,3.8l0.4,3.1l3.9-0.3l1.1-0.1l-0.4-3
							c1.5-1.3,2.7-2.9,3.6-4.6c0.3-0.7,0.6-1.5,1-2.2c0.6-0.8,1.2-1.6,1.9-2.3c0.2-0.2,0.3-0.4,0.3-0.6c0-0.3-0.3-0.5-0.6-0.6
							c-0.3,0-0.6,0-0.9,0.1h-0.1c-1.3,0.5-2.4,1.4-3.1,2.5c-0.1,0.2-0.2,0.3-0.4,0.4c-0.1,0-0.3,0-0.5,0c-0.9-0.3-1.7-0.9-2.3-1.6
							c-0.2-0.3-0.5-0.6-0.9-0.8c-0.6-0.1-1.2,0.1-1.6,0.5c-0.9,0.7-1.8,1.4-2.5,2.2C272.9,152.6,272.6,153.1,272.5,153.7z"/>
						<path class="st17" d="M275.8,159.4l0.7,3.1l3.2-0.2l-0.4-3c1.5-1.3,2.7-2.9,3.6-4.6c0.3-0.7,0.6-1.5,1-2.2
							c0.6-0.8,1.2-1.6,1.9-2.3c0.2-0.2,0.3-0.4,0.3-0.6c0-0.3-0.3-0.5-0.6-0.6c-0.3,0-0.6,0-0.9,0.1h-0.1c0.2,0.1,0.3,0.2,0.5,0.3
							c0.3,0.4-0.2,0.9-0.6,1.2c-0.8,0.9-1.4,1.9-1.7,3C281.7,155.6,277.6,158.2,275.8,159.4z"/>
						<path class="st18" d="M276.9,154.7c-0.8,0.7-1.4,1.6-1.8,2.6c0.1-1,0.5-2,1.1-2.8c0.7-0.8,1.7-1.3,2.7-1.2
							c0.2,0,0.4,0.1,0.6,0.1c-0.3,0.3-1,0.3-1.3,0.4C277.7,154.1,277.3,154.4,276.9,154.7z"/>
						<path class="st17" d="M272.2,153.8c0.6,1,1.5,1.9,2.5,2.4c0.4-0.2,0.7-0.4,1-0.6c0.1-0.1,0.3-0.2,0.4-0.4
							c0.3-0.3,0.6-0.6,0.9-1l0.4-0.5c0.3-0.4,0.6-0.9,0.8-1.3l0.3-0.5c0.3-0.4,0.5-0.9,0.6-1.1s0.3-0.6,0.3-0.6
							c-1-0.8-2.1-1.4-3.3-1.8c-0.5,0.3-1,0.7-1.4,1.1C273.6,150.9,272.7,152.3,272.2,153.8z"/>
						<path class="st18" d="M276.3,150.9c0,0,0.1,0.2,0.4,0.4c0.3,0.3,0.5,0.6,0.9,0.8c0.2,0.2,0.4,0.3,0.6,0.4l0.3-0.5
							c-0.1-0.2-0.3-0.3-0.5-0.5c-0.3-0.3-0.7-0.5-1.1-0.6C276.7,151,276.5,150.9,276.3,150.9z"/>
						<path class="st18" d="M275.3,152.6c0,0,0.1,0.2,0.3,0.4c0.2,0.3,0.5,0.6,0.8,0.8c0.2,0.2,0.4,0.3,0.6,0.4l0.4-0.5
							c-0.1-0.2-0.3-0.4-0.5-0.5c-0.3-0.3-0.6-0.4-1-0.6C275.6,152.7,275.5,152.7,275.3,152.6z"/>
						<path class="st18" d="M273.9,153.9c0,0,0.1,0.2,0.3,0.4c0.3,0.3,0.5,0.6,0.8,0.9c0.2,0.2,0.4,0.3,0.6,0.5
							c0.1-0.1,0.3-0.2,0.4-0.4c-0.2-0.2-0.4-0.4-0.6-0.6c-0.3-0.3-0.7-0.5-1.1-0.6C274.2,154,274,153.9,273.9,153.9z"/>
						<path class="st19" d="M274.6,149.7c0.5-0.1,1-0.2,1.5-0.1c0.5,0.1,0.9,0.2,1.3,0.4c0.5,0.2,1,0.4,1.4,0.7
							c0.1,0,0.1,0.1,0.2,0.2c0.2-0.4,0.3-0.6,0.3-0.6c-1-0.8-2.1-1.4-3.3-1.8C275.5,148.9,275.1,149.2,274.6,149.7z"/>
						<path class="st17" d="M276.5,162.6l3.2-0.2l3.5,8l0,0c0.3-0.1,10.3-4.5,12.6-5.6v8.4c-1.4,0.8-2.9,1.5-4.5,2.1
							c0,0-2.6,1.3-5.5,2.4c-3.2,1.3-6.3,2-7.4,1.1c-2.3-1.7-3.7-16.1-3.7-16.1L276.5,162.6z"/>
						<path class="st16" d="M274.7,162.7c0,0,1.5,14.4,3.7,16.1c1.2,0.9,4.2,0.1,7.4-1.1c-2.2,0.1-5.9,0.2-6.4-0.1
							c-0.6-0.5-3-15-3-15L274.7,162.7z"/>
						<path class="st19" d="M295.9,164.8v1.5c-2.4,0.9-12.3,3.9-12.6,4.1C283.5,170.2,293.5,165.8,295.9,164.8z"/>
						<path class="st4" d="M273.9,160.3c0,0.4,1.7,18.8,5,19.6c2.3,0.5,10.6-3,15.1-5c1.8-0.8,3-1.4,3-1.4l1-6.9l-2.2-1.9l-0.4-0.4
							l0,0c-0.7,0.3-11.2,4.4-11.8,5c0,0-3.5-9.5-3.8-9.7c-0.6-0.1-1.3-0.1-1.9,0C276.1,159.8,273.9,160.1,273.9,160.3z"/>
						<path class="st4" d="M312.4,197.9c0.2,0.3,2.9,0.5,6.1,0.4c4.7-0.2,10.6-0.9,11.6-2.8c0-0.1,0.1-0.2,0.1-0.3
							c0.8-3.4-5.8-23.6-7.6-26.1c-1.3-1.7-2.9-3.1-4.7-4.2l-1,2.1l-1.1,2.3l2,12.4l0,0l2.3,7.5c0,0-1.2,0.4-2.6,0.8
							c-1.7,0.5-3.4,1.1-5,1.8C311.9,192.1,312.4,197.9,312.4,197.9z"/>
						<path class="st4" d="M292.1,200.1c0.8,1.7,9.8,2.9,13.1,2.9s12.6-1.6,13.3-2.9c0.2-0.6,0.2-1.2,0-1.8
							c-0.3-1.2-0.8-2.4-1.4-3.5c0.1-1.3,0.2-3,0.3-4.9c0.1-2.5,0.3-5.4,0.4-8.3l0,0c0.2-5,0.3-10.1,0.3-13.3c0-1.1,0-2.3-0.1-3.4
							c-1.7-0.8-3.5-1.4-5.3-1.9l-0.4-0.1l-11.5-0.5l-0.8,0.3l0,0c-1.5,0.4-2.9,1-4.3,1.6l0,0c-0.4,0.1-0.7,0.4-1,0.6
							c0,0.1-0.1,0.3-0.1,0.4c-0.1,1.3-0.3,5-0.3,9.5c-0.1,7-0.1,16,0.2,20.3C293.7,196.1,291.6,199.1,292.1,200.1z"/>
						<path class="st19" d="M310.9,153.6c1-0.1,2-0.6,2.6-1.5c0.1-0.1,0.2-0.3,0.3-0.4c0.3-0.6,0.4-2.8-0.5-3.4
							c-0.6-0.4-1.1,0.2-1.3,0.5l0,0c-0.1,0.1-0.1,0.2-0.1,0.3L310.9,153.6z"/>
						<path class="st17" d="M310.9,153.6c1-0.1,2-0.6,2.6-1.5l0.1-0.2c0.3-0.6,0.4-2.8-0.5-3.4c-0.4-0.2-0.9,0-1.1,0.4l0,0
							c-0.1,0.1-0.1,0.2-0.1,0.3L310.9,153.6z"/>
						<path class="st16" d="M313.6,150.2c0,0.2,0,0.4,0,0.5c-0.4,0.8-1,1.4-1.7,1.8c0.2-0.4,0.3-0.8,0.2-1.2c0-0.1,0-0.3,0-0.4
							C312,150.4,313.3,149.1,313.6,150.2z"/>
						<path class="st18" d="M311.5,152.8L311.5,152.8l0.1-0.1c0.1-0.1,0.2-0.2,0.4-0.3c0.1-0.2,0.2-0.4,0.3-0.6
							c0.1-0.3,0-0.5-0.1-0.8v-0.1l0,0l0,0l0,0l0,0v-0.1c0.1-0.1,0.1-0.2,0.2-0.3l0.2-0.3c0.1-0.1,0.1-0.1,0.2-0.2
							c0.1-0.1,0.1-0.1,0.2-0.1s0.1,0,0.2,0c0,0,0.1,0,0.1,0.1l0,0l0,0c0,0,0-0.1-0.1-0.1s-0.1-0.1-0.2-0.1s-0.2,0-0.3,0.1
							c-0.1,0.1-0.2,0.1-0.3,0.2c-0.1,0.1-0.2,0.2-0.3,0.3c-0.1,0.1-0.2,0.2-0.3,0.3l-0.1,0.1l0,0v0.1l0,0l0,0v0.1v0.1
							c0.1,0.2,0.1,0.5,0.1,0.7s-0.1,0.4-0.2,0.6c-0.1,0.1-0.2,0.2-0.3,0.3L311.5,152.8L311.5,152.8z"/>
						<path class="st19" d="M300.7,153.6c-1-0.1-2-0.6-2.6-1.5c-0.1-0.1-0.2-0.3-0.3-0.4c-0.3-0.6-0.4-2.8,0.5-3.4
							c0.6-0.4,1.1,0.2,1.3,0.5l0,0c0.1,0.1,0.1,0.2,0.1,0.3L300.7,153.6z"/>
						<path class="st17" d="M300.7,153.6c-1-0.1-2-0.6-2.6-1.5L298,152c-0.3-0.6-0.4-2.8,0.5-3.4c0.4-0.2,0.9-0.1,1.2,0.3l0,0
							c0.1,0.1,0.1,0.2,0.1,0.3L300.7,153.6z"/>
						<path class="st16" d="M298,150.2c0,0.2,0,0.4,0,0.5c0.4,0.8,1,1.4,1.7,1.8c-0.2-0.4-0.3-0.8-0.2-1.2c0-0.1,0-0.3,0-0.4
							C299.6,150.4,298.3,149.1,298,150.2z"/>
						<path class="st18" d="M300.1,152.8L300.1,152.8l-0.1-0.1c-0.1-0.1-0.2-0.2-0.4-0.3c-0.1-0.2-0.2-0.4-0.3-0.6
							c-0.1-0.3,0-0.5,0.1-0.8v-0.1l0,0l0,0l0,0l0,0v-0.1c-0.1-0.1-0.1-0.2-0.2-0.3l-0.2-0.3c-0.1-0.1-0.1-0.1-0.2-0.2
							c-0.1-0.1-0.1-0.1-0.2-0.1s-0.1,0-0.2,0c0,0-0.1,0-0.1,0.1l0,0l0,0c0,0,0-0.1,0.1-0.1s0.1-0.1,0.2-0.1s0.2,0,0.3,0.1
							c0.1,0.1,0.2,0.1,0.3,0.2c0.1,0.1,0.2,0.2,0.3,0.3c0.1,0.1,0.2,0.2,0.3,0.3l0.1,0.1l0,0v0.1l0,0l0,0v0.1v0.1
							c-0.1,0.2-0.1,0.5-0.1,0.7s0.1,0.4,0.2,0.6c0.1,0.1,0.2,0.2,0.3,0.3L300.1,152.8L300.1,152.8z"/>
						<path class="st17" d="M300.3,163.6l0.2,0.3l1.3,2c0.6,0.3,1.3,0.4,2,0.6l0,0l1.8-1.9l1.2,1.9c1.2-0.2,2.4-0.7,3.4-1.4
							c0.5-0.4,0.8-0.8,1.1-1.1l0.3-0.4l-2.6-1.3l0,0l-0.5-0.3H308l-4.2-0.1h-0.3l-0.3,0.2L303,162L300.3,163.6z"/>
						<path class="st16" d="M304.8,160.3c1.2,0.2,2.4,0,3.5-0.6c-0.1-1.4-0.1-3.1-0.1-3.1l-4.7,0.1c0.1,1,0.1,1.9,0,2.9
							C303.9,160,304.3,160.2,304.8,160.3z"/>
						<path class="st17" d="M303.9,163.2c-0.4-0.4-0.8-0.8-1.1-1.4l0,0c0.4-0.6,0.7-1.4,0.6-2.2c0.4,0.3,0.8,0.6,1.3,0.7
							c1.2,0.2,2.4,0,3.5-0.6c0,0.6,0.1,1.1,0.2,1.7c0.2,0.3,0.4,0.5,0.7,0.6c-0.7,0.9-1.7,1.5-2.8,1.8
							C305.5,164,304.6,163.8,303.9,163.2z"/>
						<path class="st19" d="M300.2,163.5l0.1,0.2l0,0l0.2,0.3l2.7-1.6l0.3-0.2l0.2-0.1c0.1-0.1,0.2-0.2,0.3-0.4
							c0.2-0.5,0.3-1,0.3-1.6l0,0c0-0.6,0.1-1.2,0.1-1.8v-0.2c0-0.6,0-1.1,0-1.4h-0.7c0,0,0,0,0,0.1s0,0.1,0,0.1v0.1
							c0,0.2,0,0.5,0,0.8v0.9c0,0.1,0,0.2,0,0.3s0,0.1,0,0.1s0,0.2,0,0.4s0,0,0,0.1v0.1l0,0v0.1l0,0l0,0v0.1v0.1l0,0v0.2
							c0,0.1,0,0.1,0,0.2v0.1c0,0.1,0,0.2,0,0.2l0,0v0.1c0,0.1,0,0.2-0.1,0.2v0.1l0,0v0.1c0,0.1-0.1,0.2-0.1,0.2l0,0l0,0l0,0
							l-0.1,0.1l0,0l0,0l0,0l0,0C302.3,162.2,301.3,162.9,300.2,163.5z"/>
						<path class="st19" d="M307.8,158.3c0,0.5,0,1.1,0,1.7l0,0c0,0.6,0.1,1.2,0.3,1.8v0.1c0,0,0,0.1,0.1,0.1
							c0.1,0.2,0.3,0.3,0.5,0.4l0,0c0.8,0.5,1.7,1,2.5,1.4l0.3-0.4l0,0c-1.1-0.6-2.2-1.3-3.3-2v-0.1v-0.1c0,0,0,0,0-0.1l0,0l0,0
							c0-0.1,0-0.2,0-0.3s0-0.1,0-0.2l0,0c0-0.1,0-0.1,0-0.2V160v-0.1l0,0v-0.1v-0.1v-0.2c0-0.1,0-0.2,0-0.2l0,0v-0.1l0,0v-0.1V159
							c0,0,0-0.1,0-0.2s0,0,0-0.1v-0.1v-0.1c0,0,0,0,0-0.1l0,0c0-0.1,0-0.2,0-0.3l0,0c0-0.1,0-0.2,0-0.4v-0.1c0-0.3,0-0.5,0-0.5H308
							c0,0.3,0,0.7,0,1.2c0,0.1,0,0.2,0,0.4L307.8,158.3z"/>
						<path class="st17" d="M300,150.9c0,0,1,5.1,2.1,6.3s3.7,1.5,3.7,1.5s2.6-0.2,3.7-1.5s2-6.3,2-6.3c0.1-0.5,0.2-1,0.3-1.5l0,0
							c0.1-1,0.1-2,0-2.9c0,0-0.1-2.9-1.5-4.2c-0.7-0.5-1.5-0.7-2.4-0.5c-1.4,0.1-2.8,0.1-4.3,0c-0.8-0.2-1.7,0-2.4,0.5
							c-0.7,0.7-1.1,1.6-1.3,2.6c-0.1,0.5-0.2,1.1-0.2,1.6C299.7,147.9,299.7,149.4,300,150.9z"/>
						<path class="st20" d="M302.2,156.7c1.4,2.4,5.5,1.9,7.1,0.3c2.5-3.8,2.4-9.1,1.5-14c0.6,1.1,0.9,2.3,0.9,3.5
							c0.1,1.5,0,3-0.3,4.4c0,0-0.8,5.1-2,6.3s-3.7,1.5-3.7,1.5s-2.6-0.2-3.7-1.5s-2.1-6.3-2.1-6.3c-0.3-1.2-0.3-2.5-0.2-3.7
							C300.1,150.3,300.3,153.4,302.2,156.7z"/>
						
							<ellipse transform="matrix(0.9366 -0.3505 0.3505 0.9366 -33.4113 118.4385)" class="st16" cx="310.5" cy="151.5" rx="1.5" ry="0.5"/>
						
							<ellipse transform="matrix(0.3845 -0.9231 0.9231 0.3845 45.3092 371.0144)" class="st16" cx="300.9" cy="151.5" rx="0.5" ry="1.5"/>
						<path class="st21" d="M301.1,146.6c0,0,2.7-2.2,3.4-1.1c0.4,0.6,0,0.9,0,0.9L301.1,146.6z"/>
						<path class="st16" d="M304.5,151.5c0.7,0.5,1.6,0.6,2.4,0.2c-0.1,0.6-0.7,1-1.3,1C305.1,152.6,304.6,152.1,304.5,151.5z"/>
						<path class="st22" d="M305.9,152.6c0.2,0,0.4-0.1,0.5-0.2c0.2-0.1,0.3-0.3,0.4-0.4c0-0.2-0.1-0.4-0.2-0.5s-0.2-0.1-0.4-0.1
							h-0.1c0-0.1,0-0.1,0-0.2c0-0.4,0.1-0.8,0.1-1.2c0.1-0.6,0.3-1.1,0.6-1.6c0,0.6-0.1,1.1-0.3,1.7c-0.1,0.4-0.2,0.8-0.3,1.1
							c0.2,0,0.3,0,0.4,0.1s0.3,0.2,0.3,0.3c0.1,0.2,0.1,0.3,0.1,0.5c-0.1,0.3-0.3,0.5-0.6,0.7c-0.2,0.1-0.4,0.1-0.7,0.1
							c-0.1,0-0.3,0-0.4-0.1l-0.1-0.1C305.5,152.6,305.7,152.6,305.9,152.6z"/>
						<path class="st5" d="M303.3,153.4c1.6,0.1,3.1,0.6,4.5,1.4c0,0-1.3,1.7-2.9,1.1C304,155.4,303.3,154.4,303.3,153.4z"/>
						<path class="st21" d="M310.9,145.7c0,0-3.4-0.7-3.6,0.6c-0.1,0.8,0.4,0.8,0.4,0.8L310.9,145.7z"/>
						
							<ellipse transform="matrix(2.163962e-02 -0.9998 0.9998 2.163962e-02 153.0392 454.9123)" class="st23" cx="309" cy="149.3" rx="1.1" ry="0.7"/>
						<path class="st24" d="M310.3,148.6c-0.3,0.5-1,0.8-1.6,0.6C309.1,148.7,309.7,148.5,310.3,148.6z"/>
						
							<ellipse transform="matrix(0.9998 -2.163965e-02 2.163965e-02 0.9998 -3.16 6.5899)" class="st23" cx="302.9" cy="149.3" rx="0.7" ry="1.1"/>
						<path class="st24" d="M301.5,148.6c0.3,0.5,1,0.8,1.6,0.6C302.8,148.7,302.1,148.5,301.5,148.6z"/>
						<path class="st25" d="M313.2,148.6L313.2,148.6h0.1H313.2z"/>
						<path class="st26" d="M298.8,146.4c0,0.7,0,1.3,0.1,2c0.5,0.6,0.8,1,1.3,1.5c-0.1-1.3-0.1-2.7,0-4c0.2-0.1,0.5-0.2,0.7-0.4
							c0.9-0.7,2-1.3,3.1-1.7c2.2-0.5,4.6,1.1,6.8,0.2c0.7,1.7,1.1,3.5,1.1,5.3c0.4-0.4,0.9-0.7,1.5-0.9c0.2-0.4,0.3-0.9,0.4-1.3
							c0.2-0.5,0.3-1,0.5-1.6c0.1-0.3,0.1-0.5,0.2-0.8c0.2-0.7,0.2-1.5,0.1-2.3c-0.3-0.9-0.9-1.7-1.7-2.2c-0.9-0.5-2.1-0.6-3.1-0.2
							c-1.4-2-4.3-2.1-6.4-1.5c-2,0.5-3.5,2-4.2,3.9c-0.2,0.9-0.5,1.8-0.8,2.7c-0.2,0.4-0.4,0.7-0.8,1
							C297.9,146.4,298.3,146.4,298.8,146.4z"/>
						<path class="st27" d="M298.2,145.2c0.4-0.3,0.8-0.6,1.2-0.9c1.1-1,2.4-1.7,3.8-2.2c1.3-0.2,2.5-0.1,3.8,0.2s2.6,0.1,3.8-0.4
							c0.8,0.6,1.3,1.3,2,2c0.4,0.4,0.9,0.7,1.5,0.8c0.2-0.7,0.2-1.5,0.1-2.3c-0.1-0.2-0.2-0.4-0.3-0.6c-0.3-0.6-0.9-1.2-1.5-1.6
							c-0.9-0.5-2.1-0.6-3.1-0.2c-1.4-2-4.3-2.1-6.4-1.5c-2,0.5-3.5,2-4.2,3.9c0,0.1-0.1,0.2-0.1,0.3
							C298.7,143.7,298.5,144.5,298.2,145.2z"/>
						<path class="st12" d="M298.9,142.9c0.4-0.2,0.8-0.5,1.2-0.8c1.2-0.9,2.4-2.1,3.8-2.6c1.9-0.5,3.9,0.1,5,1.7
							c1.7-0.6,3.6-0.4,5.2,0.6c-0.3-0.6-0.9-1.2-1.5-1.6c-0.9-0.5-2.1-0.6-3.1-0.2c-1.4-2-4.3-2.1-6.4-1.5c-2,0.5-3.5,2-4.2,3.9
							C299,142.7,298.9,142.8,298.9,142.9z"/>
						<path class="st28" d="M305.6,164.5l1.2,1.9l0.5,0.8c1-0.7,2-1.4,2.9-2.3c0.5-0.4,0.8-0.8,1.1-1.1l0.3-0.4l0,0l0.4-0.5
							l-3.7-1.5l-0.3,0.3l-0.1,0.1l-2,2.1L305.6,164.5z"/>
						<polygon class="st28" points="299.7,162.8 300.2,163.5 300.3,163.6 300.3,163.6 300.5,163.9 301.8,165.9 302.8,167.4 
							303.8,166.4 303.8,166.4 305.6,164.5 304.9,163.7 303.5,162.1 303.2,161.9 303,161.6 						"/>
						<path class="st29" d="M316.3,189.8c0.2-0.4,0.8,0,0.6,0.3c-1.2,2.6-1,5.6,0.6,8c0.1,0.1-0.1,0.2-0.1,0.1
							C315,196.5,315.1,192.1,316.3,189.8z"/>
						<rect x="292.7" y="174.8" class="st13" width="25" height="15.4"/>
						<path class="st28" d="M304,182.6c0.6,0,1.2-0.5,1.2-1.1c0-0.3-0.1-0.5-0.3-0.7h0.3c1,0,1.8,0.8,1.8,1.8s-0.8,1.8-1.8,1.8
							s-1.8-0.8-1.8-1.8l0,0c0-0.1,0-0.1,0-0.2C303.5,182.6,303.8,182.6,304,182.6z"/>
						<path class="st17" d="M302.5,189.7c0,0,0,0.1,0.1,0.2c2,1.3,4.1,2.5,6.2,3.5l1.5,0.2c0.9,0.1,2,0.3,3,0.4l0.6,0.1l0.3,0.1
							l0.3,0.1c0.3,0.1,0.8,0.1,1.1,0.2c-0.1-1.2,0-2.5,0.3-3.7c-0.5-0.5-1.4-1-1.8-1.3c-0.7-0.7-1.5-1.1-2.5-1.4
							c-0.8,0-4.1-1.2-4-0.8c0.1,0.5,0.5,1,1,1.2c0.6,0.2,2.7,0.9,2.9,1.6s-4.3,0.7-5,0.3S302.6,189.4,302.5,189.7z"/>
						<path class="st4" d="M321.2,169.6c-0.8-2-8.7-6.6-8.7-6.6c1.8,0.5,3.6,1.1,5.3,1.9c1.8,1.1,3.4,2.5,4.7,4.2
							c1.8,2.6,8.4,22.8,7.6,26.1C329.5,187.6,322,171.6,321.2,169.6z"/>
						<path class="st4" d="M280.5,171.5c0.2,0.3,2.2-0.5,2.2-0.5s0.8,1.7,1.1,1.6s-0.1-1.8-0.1-1.8c0.1-0.2,6-3.2,10.6-5.4l1.5-0.7
							l3.9-1.9c-1.5,0.4-2.9,1-4.3,1.6l0,0c-0.7,0.3-11.2,4.4-11.8,5c0,0-3.5-9.5-3.8-9.7c-0.6-0.1-1.3-0.1-1.9,0l4.4,9.7
							C282.4,169.3,280.3,171.1,280.5,171.5z"/>
					</g>
				</g>
			</g>
			<g class="st30">
				<path class="st0" d="M213.2,127.9h-0.8c-0.1,0-0.2-0.1-0.2-0.2l-0.9-3h-3.4l-0.8,3c0,0.1-0.1,0.2-0.2,0.2h-0.8
					c-0.1,0-0.2-0.1-0.2-0.2c0,0,0-0.1,0-0.1l2.4-8.5c0.2-0.8,0.8-1,1.3-1c0.5,0,1.1,0.2,1.3,1l2.4,8.5c0,0,0,0.1,0,0.1
					C213.4,127.8,213.3,127.9,213.2,127.9z M209.9,119.4c0-0.1-0.1-0.2-0.2-0.2c-0.1,0-0.2,0.1-0.3,0.2l-1.2,4.3h2.9L209.9,119.4z"
					/>
			</g>
			<g class="st30">
				<path class="st0" d="M217.8,128c-2.1,0-3.4-1.1-3.4-3.6v-5.9c0-0.1,0.1-0.2,0.2-0.2h0.7c0.1,0,0.2,0.1,0.2,0.2v5.9
					c0,1.7,0.5,2.6,2.1,2.6s2.1-0.9,2.1-2.6v-5.9c0-0.1,0.1-0.2,0.2-0.2h0.7c0.1,0,0.2,0.1,0.2,0.2v5.9
					C221.1,126.9,219.9,128,217.8,128z"/>
				<path class="st0" d="M228.5,127.9c-0.3,0.1-1.3,0.1-2.6,0.1c-1.4,0-2.8-0.3-2.8-2.4v-7.1c0-0.1,0.1-0.3,0.3-0.3h0.7
					c0.1,0,0.3,0.1,0.3,0.3v7.1c0,1,0.2,1.4,1.6,1.4h2.5c0.1,0,0.1,0.1,0.1,0.2v0.6C228.6,127.8,228.6,127.9,228.5,127.9z"/>
				<path class="st0" d="M236.5,127.9h-0.8c-0.1,0-0.2-0.1-0.2-0.2l-0.9-3h-3.4l-0.8,3c0,0.1-0.1,0.2-0.2,0.2h-0.8
					c-0.1,0-0.2-0.1-0.2-0.2c0,0,0-0.1,0-0.1l2.4-8.5c0.2-0.8,0.8-1,1.3-1c0.5,0,1.1,0.2,1.3,1l2.4,8.5c0,0,0,0.1,0,0.1
					C236.8,127.8,236.7,127.9,236.5,127.9z M233.3,119.4c0-0.1-0.1-0.2-0.2-0.2c-0.1,0-0.2,0.1-0.3,0.2l-1.2,4.3h2.9L233.3,119.4z"
					/>
				<path class="st0" d="M246.8,127.9c-0.6,0.1-1.1,0.2-2.2,0.2c-1.6,0-3.5-0.9-3.5-4v-1.8c0-3.2,1.8-4,3.5-4c0.8,0,1.6,0.1,2.2,0.2
					c0.1,0,0.2,0.1,0.2,0.2v0.7c0,0.1,0,0.1-0.2,0.1c0,0,0,0,0,0c-0.5,0-1.4-0.1-2.2-0.1c-1.3,0-2.3,0.7-2.3,3v1.8c0,2.2,1,3,2.3,3
					c0.7,0,1.7-0.1,2.2-0.1c0,0,0,0,0.1,0c0.1,0,0.2,0.1,0.2,0.2v0.5C247,127.8,246.9,127.8,246.8,127.9z"/>
				<path class="st0" d="M255.2,127.9h-0.8c-0.1,0-0.2-0.1-0.2-0.2l-0.9-3H250l-0.8,3c0,0.1-0.1,0.2-0.2,0.2h-0.8
					c-0.1,0-0.2-0.1-0.2-0.2c0,0,0-0.1,0-0.1l2.4-8.5c0.2-0.8,0.8-1,1.3-1c0.5,0,1.1,0.2,1.3,1l2.4,8.5c0,0,0,0.1,0,0.1
					C255.4,127.8,255.3,127.9,255.2,127.9z M251.9,119.4c0-0.1-0.1-0.2-0.2-0.2c-0.1,0-0.2,0.1-0.3,0.2l-1.2,4.3h2.9L251.9,119.4z"
					/>
				<path class="st0" d="M263.3,127.9h-0.8c-0.2,0-0.2,0-0.3-0.2l-2.3-3.9c0,0-0.1,0-0.1,0c-0.1,0-0.1,0-0.2,0c-0.4,0-0.7,0-1.4,0
					v3.8c0,0.1-0.1,0.3-0.2,0.3H257c-0.1,0-0.2-0.1-0.2-0.3v-9.2c0-0.2,0.1-0.3,0.3-0.3c0.6-0.1,1.5-0.1,2.3-0.1
					c2.1,0,3.7,0.7,3.7,2.8v0.1c0,1.5-0.9,2.3-2.1,2.6l2.4,4c0,0,0,0.1,0,0.1C263.5,127.9,263.4,127.9,263.3,127.9z M261.9,120.9
					c0-1.3-0.9-1.7-2.5-1.7c-0.4,0-1.1,0-1.4,0v3.6c0.6,0,1.1,0,1.4,0C261,122.8,261.9,122.4,261.9,120.9L261.9,120.9z"/>
				<path class="st0" d="M271.5,127.9h-0.8c-0.2,0-0.2,0-0.3-0.2l-2.3-3.9c0,0-0.1,0-0.1,0c-0.1,0-0.1,0-0.2,0c-0.4,0-0.7,0-1.4,0
					v3.8c0,0.1-0.1,0.3-0.2,0.3h-0.7c-0.1,0-0.2-0.1-0.2-0.3v-9.2c0-0.2,0.1-0.3,0.3-0.3c0.6-0.1,1.5-0.1,2.3-0.1
					c2.1,0,3.7,0.7,3.7,2.8v0.1c0,1.5-0.9,2.3-2.1,2.6l2.4,4c0,0,0,0.1,0,0.1C271.6,127.9,271.6,127.9,271.5,127.9z M270.1,120.9
					c0-1.3-0.9-1.7-2.5-1.7c-0.4,0-1.1,0-1.4,0v3.6c0.6,0,1.1,0,1.4,0C269.2,122.8,270.1,122.4,270.1,120.9L270.1,120.9z"/>
				<path class="st0" d="M274.3,127.9h-0.7c-0.1,0-0.2-0.1-0.2-0.3v-9.2c0-0.1,0.1-0.2,0.2-0.2h0.7c0.1,0,0.2,0.1,0.2,0.2v9.2
					C274.5,127.8,274.4,127.9,274.3,127.9z"/>
				<path class="st0" d="M280,128c-2.1,0-3.5-1.2-3.5-4.1v-1.7c0-2.9,1.5-4.1,3.5-4.1c2.1,0,3.5,1.2,3.5,4.1v1.7
					C283.5,126.8,282,128,280,128z M282.3,122.2c0-2.2-0.9-3-2.3-3c-1.4,0-2.3,0.8-2.3,3v1.7c0,2.2,0.9,3,2.3,3c1.4,0,2.3-0.8,2.3-3
					V122.2z"/>
				<path class="st0" d="M291.8,127.9H291c-0.2,0-0.4-0.1-0.4-0.2l-4-7.7c0,0,0,0,0,0c0,0,0,0,0,0v7.6c0,0.1-0.1,0.2-0.2,0.2h-0.7
					c-0.1,0-0.2,0-0.2-0.2v-9.2c0-0.2,0.2-0.4,0.4-0.4h0.7c0.4,0,0.4,0.1,0.5,0.3l4,7.6l0,0c0,0,0,0,0,0v-7.7c0-0.1,0.1-0.2,0.2-0.2
					h0.7c0.1,0,0.2,0.1,0.2,0.2v9.1C292.2,127.8,292,127.9,291.8,127.9z"/>
			</g>
			<g class="st30">
				<path class="st0" d="M190.7,147.3h-0.3c-0.1,0-0.1-0.1-0.1-0.1v-4.2c0-0.1,0-0.1,0.1-0.1h0.3c0.1,0,0.1,0,0.1,0.1v4.2
					C190.8,147.2,190.8,147.3,190.7,147.3z"/>
				<path class="st0" d="M194.8,147.3h-0.4c-0.1,0-0.2,0-0.2-0.1l-1.9-3.5c0,0,0,0,0,0s0,0,0,0v3.5c0,0.1,0,0.1-0.1,0.1h-0.3
					c-0.1,0-0.1,0-0.1-0.1V143c0-0.1,0.1-0.2,0.2-0.2h0.3c0.2,0,0.2,0,0.2,0.1l1.8,3.5l0,0c0,0,0,0,0,0v-3.5c0-0.1,0-0.1,0.1-0.1
					h0.3c0.1,0,0.1,0.1,0.1,0.1v4.2C194.9,147.2,194.9,147.3,194.8,147.3z"/>
				<path class="st0" d="M196.4,147.3H196c-0.1,0-0.1-0.1-0.1-0.1v-4.2c0-0.1,0-0.1,0.1-0.1h0.3c0.1,0,0.1,0,0.1,0.1v4.2
					C196.5,147.2,196.4,147.3,196.4,147.3z"/>
				<path class="st0" d="M199.9,147.2c-0.3,0-0.5,0.1-1,0.1c-0.7,0-1.6-0.4-1.6-1.9v-0.8c0-1.5,0.8-1.9,1.6-1.9c0.4,0,0.7,0.1,1,0.1
					c0.1,0,0.1,0,0.1,0.1v0.3c0,0,0,0.1-0.1,0.1c0,0,0,0,0,0c-0.2,0-0.7-0.1-1-0.1c-0.6,0-1,0.3-1,1.4v0.8c0,1,0.5,1.4,1,1.4
					c0.3,0,0.8,0,1,0c0,0,0,0,0,0c0.1,0,0.1,0,0.1,0.1v0.2C200.1,147.2,200,147.2,199.9,147.2z"/>
				<path class="st0" d="M201.2,147.3h-0.3c-0.1,0-0.1-0.1-0.1-0.1v-4.2c0-0.1,0-0.1,0.1-0.1h0.3c0.1,0,0.1,0,0.1,0.1v4.2
					C201.3,147.2,201.3,147.3,201.2,147.3z"/>
				<path class="st0" d="M203.9,147.3c-0.9,0-1.6-0.6-1.6-1.9v-0.8c0-1.3,0.7-1.9,1.6-1.9s1.6,0.6,1.6,1.9v0.8
					C205.5,146.8,204.8,147.3,203.9,147.3z M204.9,144.7c0-1-0.4-1.4-1.1-1.4c-0.7,0-1.1,0.4-1.1,1.4v0.8c0,1,0.4,1.4,1.1,1.4
					c0.7,0,1.1-0.4,1.1-1.4V144.7z"/>
			</g>
			<path class="st0" d="M193.2,157.3h-0.3c-0.1,0-0.1-0.1-0.1-0.1v-2h-2.1v2c0,0.1-0.1,0.1-0.1,0.1h-0.3c-0.1,0-0.1-0.1-0.1-0.1
				v-4.2c0-0.1,0.1-0.1,0.1-0.1h0.3c0.1,0,0.1,0.1,0.1,0.1v1.7h2.1v-1.7c0-0.1,0.1-0.1,0.1-0.1h0.3c0.1,0,0.1,0.1,0.1,0.1v4.2
				C193.3,157.2,193.3,157.3,193.2,157.3z"/>
			<path class="st0" d="M195.8,157.3c-0.9,0-1.6-0.6-1.6-1.9v-0.8c0-1.3,0.7-1.9,1.6-1.9s1.6,0.6,1.6,1.9v0.8
				C197.4,156.7,196.7,157.3,195.8,157.3z M196.9,154.6c0-1-0.4-1.4-1.1-1.4c-0.7,0-1.1,0.4-1.1,1.4v0.8c0,1,0.4,1.4,1.1,1.4
				c0.7,0,1.1-0.4,1.1-1.4V154.6z"/>
			<path class="st0" d="M201.2,157.3h-0.4c-0.1,0-0.1,0-0.2-0.1l-1.1-1.8c0,0,0,0-0.1,0c0,0-0.1,0-0.1,0c-0.2,0-0.3,0-0.7,0v1.8
				c0,0.1,0,0.1-0.1,0.1h-0.3c-0.1,0-0.1-0.1-0.1-0.1v-4.2c0-0.1,0-0.1,0.1-0.1c0.3,0,0.7,0,1.1,0c0.9,0,1.7,0.3,1.7,1.3v0
				c0,0.7-0.4,1.1-0.9,1.2l1.1,1.8C201.3,157.1,201.3,157.2,201.2,157.3C201.3,157.2,201.3,157.3,201.2,157.3z M200.6,154
				c0-0.6-0.4-0.8-1.1-0.8c-0.2,0-0.5,0-0.7,0v1.6c0.3,0,0.5,0,0.7,0C200.2,154.9,200.6,154.7,200.6,154L200.6,154z"/>
			<path class="st0" d="M205,157.3h-0.4c-0.1,0-0.1,0-0.1-0.1l-0.4-1.4h-1.6l-0.4,1.4c0,0-0.1,0.1-0.1,0.1h-0.4
				c-0.1,0-0.1,0-0.1-0.1c0,0,0,0,0,0l1.1-3.9c0.1-0.4,0.4-0.5,0.6-0.5c0.2,0,0.5,0.1,0.6,0.4l1.1,3.9c0,0,0,0,0,0
				C205.1,157.2,205.1,157.3,205,157.3z M203.5,153.3c0-0.1-0.1-0.1-0.1-0.1c-0.1,0-0.1,0-0.1,0.1l-0.5,2h1.3L203.5,153.3z"/>
			<path class="st0" d="M208.8,157.3h-0.4c-0.1,0-0.1,0-0.2-0.1l-1.1-1.8c0,0,0,0-0.1,0c0,0-0.1,0-0.1,0c-0.2,0-0.3,0-0.7,0v1.8
				c0,0.1,0,0.1-0.1,0.1h-0.3c-0.1,0-0.1-0.1-0.1-0.1v-4.2c0-0.1,0-0.1,0.1-0.1c0.3,0,0.7,0,1.1,0c0.9,0,1.7,0.3,1.7,1.3v0
				c0,0.7-0.4,1.1-0.9,1.2l1.1,1.8C208.8,157.1,208.8,157.2,208.8,157.3C208.8,157.2,208.8,157.3,208.8,157.3z M208.1,154
				c0-0.6-0.4-0.8-1.1-0.8c-0.2,0-0.5,0-0.7,0v1.6c0.3,0,0.5,0,0.7,0C207.7,154.9,208.1,154.7,208.1,154L208.1,154z"/>
			<path class="st0" d="M210,157.3h-0.3c-0.1,0-0.1-0.1-0.1-0.1v-4.2c0-0.1,0-0.1,0.1-0.1h0.3c0.1,0,0.1,0,0.1,0.1v4.2
				C210.1,157.2,210.1,157.3,210,157.3z"/>
			<path class="st0" d="M212.7,157.3c-0.9,0-1.6-0.6-1.6-1.9v-0.8c0-1.3,0.7-1.9,1.6-1.9s1.6,0.6,1.6,1.9v0.8
				C214.3,156.7,213.6,157.3,212.7,157.3z M213.7,154.6c0-1-0.4-1.4-1.1-1.4c-0.7,0-1.1,0.4-1.1,1.4v0.8c0,1,0.4,1.4,1.1,1.4
				c0.7,0,1.1-0.4,1.1-1.4V154.6z"/>
			<path class="st0" d="M192.7,167.2c-0.3,0-0.5,0.1-1,0.1c-0.7,0-1.6-0.4-1.6-1.9v-0.8c0-1.5,0.8-1.9,1.6-1.9c0.4,0,0.7,0.1,1,0.1
				c0.1,0,0.1,0,0.1,0.1v0.3c0,0,0,0.1-0.1,0.1c0,0,0,0,0,0c-0.2,0-0.7-0.1-1-0.1c-0.6,0-1,0.3-1,1.4v0.8c0,1,0.5,1.4,1,1.4
				c0.3,0,0.8,0,1,0c0,0,0,0,0,0c0.1,0,0.1,0,0.1,0.1v0.2C192.8,167.2,192.7,167.2,192.7,167.2z"/>
			<path class="st0" d="M196.5,167.3h-0.3c-0.1,0-0.1-0.1-0.1-0.1v-2H194v2c0,0.1-0.1,0.1-0.1,0.1h-0.3c-0.1,0-0.1-0.1-0.1-0.1v-4.2
				c0-0.1,0.1-0.1,0.1-0.1h0.3c0.1,0,0.1,0.1,0.1,0.1v1.7h2.1v-1.7c0-0.1,0.1-0.1,0.1-0.1h0.3c0.1,0,0.1,0.1,0.1,0.1v4.2
				C196.6,167.2,196.5,167.3,196.5,167.3z"/>
			<g class="st30">
				<path class="st0" d="M200.6,167.3h-0.4c-0.1,0-0.1,0-0.1-0.1l-0.4-1.4h-1.6l-0.4,1.4c0,0-0.1,0.1-0.1,0.1h-0.4
					c-0.1,0-0.1,0-0.1-0.1c0,0,0,0,0,0l1.1-3.9c0.1-0.4,0.4-0.5,0.6-0.5c0.2,0,0.5,0.1,0.6,0.4l1.1,3.9c0,0,0,0,0,0
					C200.7,167.2,200.7,167.3,200.6,167.3z M199.1,163.3c0-0.1-0.1-0.1-0.1-0.1c-0.1,0-0.1,0-0.1,0.1l-0.5,2h1.3L199.1,163.3z"/>
			</g>
			<g class="st30">
				<path class="st0" d="M203.5,163.3h-1.2v3.9c0,0.1,0,0.1-0.1,0.1h-0.3c-0.1,0-0.1-0.1-0.1-0.1v-3.9h-1.2c-0.1,0-0.1,0-0.1-0.1
					v-0.3c0-0.1,0.1-0.1,0.1-0.1h2.9c0.1,0,0.1,0,0.1,0.1v0.3C203.7,163.2,203.6,163.3,203.5,163.3z"/>
			</g>
			<g class="st30">
				<path class="st0" d="M192.3,177.5c-0.2,0-0.8,0-1.2,0c-0.8,0-1.3-0.3-1.3-1.1v-2.3c0-0.8,0.4-1.1,1.3-1.1c0.4,0,0.9,0,1.2,0
					c0,0,0.1,0,0.1,0.1v0.3c0,0,0,0.1-0.1,0.1h-1.2c-0.6,0-0.7,0.2-0.7,0.6v0.8h1.8c0.1,0,0.1,0.1,0.1,0.1v0.2
					c0,0.1-0.1,0.1-0.1,0.1h-1.8v1c0,0.5,0.1,0.6,0.7,0.6h1.2c0,0,0.1,0,0.1,0.1L192.3,177.5C192.3,177.5,192.3,177.5,192.3,177.5z"
					/>
				<path class="st0" d="M196.2,177.5h-0.4c-0.1,0-0.1,0-0.1-0.1l-1.1-1.7l-1.1,1.7c0,0.1-0.1,0.1-0.1,0.1H193c-0.1,0-0.1,0-0.1-0.1
					c0,0,0,0,0-0.1l1.3-2.1l-1.3-2c0,0,0,0,0-0.1c0,0,0-0.1,0.1-0.1h0.4c0.1,0,0.1,0,0.1,0.1l1.1,1.7l1-1.7c0-0.1,0.1-0.1,0.1-0.1
					h0.4c0.1,0,0.1,0,0.1,0.1c0,0,0,0,0,0.1l-1.3,2.1l1.3,2.1C196.3,177.4,196.3,177.4,196.2,177.5
					C196.3,177.5,196.2,177.5,196.2,177.5z"/>
				<path class="st0" d="M200,177.5h-0.4c-0.1,0-0.1,0-0.1-0.1l-0.4-1.4h-1.6l-0.4,1.4c0,0-0.1,0.1-0.1,0.1h-0.4
					c-0.1,0-0.1,0-0.1-0.1c0,0,0,0,0,0l1.1-3.9c0.1-0.4,0.4-0.5,0.6-0.5c0.2,0,0.5,0.1,0.6,0.4l1.1,3.9c0,0,0,0,0,0
					C200.1,177.5,200.1,177.5,200,177.5z M198.5,173.6c0-0.1-0.1-0.1-0.1-0.1c-0.1,0-0.1,0-0.1,0.1l-0.5,2h1.3L198.5,173.6z"/>
				<path class="st0" d="M204.3,177.5H204c-0.1,0-0.1-0.1-0.1-0.1v-3.6c0,0,0,0,0,0s0,0,0,0l-0.9,1.8c-0.1,0.1-0.1,0.2-0.3,0.2h-0.3
					c-0.1,0-0.2-0.1-0.3-0.2l-0.9-1.8c0,0,0,0,0,0c0,0,0,0,0,0v3.6c0,0.1-0.1,0.1-0.1,0.1h-0.3c-0.1,0-0.1-0.1-0.1-0.1v-4.2
					c0-0.1,0.1-0.2,0.2-0.2h0.4c0.1,0,0.2,0,0.2,0.1l1,2.1c0,0.1,0,0.1,0.1,0.1c0,0,0,0,0.1-0.1l1-2.1c0-0.1,0.1-0.1,0.2-0.1h0.4
					c0.1,0,0.2,0.1,0.2,0.2v4.2C204.4,177.5,204.4,177.5,204.3,177.5z"/>
				<path class="st0" d="M207.8,177.5c-0.2,0-0.8,0-1.2,0c-0.8,0-1.3-0.3-1.3-1.1v-2.3c0-0.8,0.4-1.1,1.3-1.1c0.4,0,0.9,0,1.2,0
					c0,0,0.1,0,0.1,0.1v0.3c0,0,0,0.1-0.1,0.1h-1.2c-0.6,0-0.7,0.2-0.7,0.6v0.8h1.8c0.1,0,0.1,0.1,0.1,0.1v0.2
					c0,0.1-0.1,0.1-0.1,0.1h-1.8v1c0,0.5,0.1,0.6,0.7,0.6h1.2c0,0,0.1,0,0.1,0.1L207.8,177.5C207.9,177.5,207.8,177.5,207.8,177.5z"
					/>
				<path class="st0" d="M211.6,177.5h-0.4c-0.1,0-0.2,0-0.2-0.1l-1.9-3.5c0,0,0,0,0,0s0,0,0,0v3.5c0,0.1,0,0.1-0.1,0.1h-0.3
					c-0.1,0-0.1,0-0.1-0.1v-4.2c0-0.1,0.1-0.2,0.2-0.2h0.3c0.2,0,0.2,0,0.2,0.1l1.8,3.5l0,0c0,0,0,0,0,0v-3.5c0-0.1,0-0.1,0.1-0.1
					h0.3c0.1,0,0.1,0.1,0.1,0.1v4.2C211.8,177.4,211.7,177.5,211.6,177.5z"/>
			</g>
			<rect x="184.6" y="143.6" class="st0" width="2.6" height="2.6"/>
			<rect x="184.6" y="153.4" class="st0" width="2.6" height="2.6"/>
			<rect x="184.6" y="164.2" class="st0" width="2.6" height="2.6"/>
			<rect x="184.6" y="174" class="st0" width="2.6" height="2.6"/>
			<rect x="220.1" y="187.3" class="st31" width="102.1" height="8.8"/>
			<polygon class="st32" points="305.7,271.7 186.2,271.7 195.7,246.7 296.3,246.7 			"/>
			<rect x="186.2" y="271.7" class="st33" width="119.4" height="4.7"/>
			<polygon class="st33" points="200.7,254.1 196.5,254.1 197.6,250.1 201.8,250.1 			"/>
			<polygon class="st33" points="205.5,259.3 195,259.3 196.1,255.3 206.4,255.3 			"/>
			<polygon class="st33" points="204.3,264.5 193.5,264.5 194.7,260.5 205.2,260.5 			"/>
			<polygon class="st33" points="206.6,254.1 202.4,254.1 203.4,250.1 207.6,250.1 			"/>
			<polygon class="st33" points="196.7,269.7 192.1,269.7 193.2,265.7 197.7,265.7 			"/>
			<polygon class="st33" points="203.1,269.7 198.5,269.7 199.5,265.7 204.1,265.7 			"/>
			<polygon class="st33" points="212.6,254.1 208.4,254.1 209.2,250.1 213.4,250.1 			"/>
			<polygon class="st33" points="218.5,254.1 214.3,254.1 215,250.1 219.2,250.1 			"/>
			<polygon class="st33" points="224.5,254.1 220.2,254.1 220.8,250.1 225,250.1 			"/>
			<polygon class="st33" points="230.4,254.1 226.2,254.1 226.6,250.1 230.8,250.1 			"/>
			<polygon class="st33" points="236.4,254.1 232.1,254.1 232.4,250.1 236.6,250.1 			"/>
			<polygon class="st33" points="242.3,254.1 238.1,254.1 238.2,250.1 242.4,250.1 			"/>
			<polygon class="st33" points="248.2,254.1 244,254.1 244,250.1 248.2,250.1 			"/>
			<polygon class="st33" points="254.2,254.1 249.9,254.1 249.9,250.1 254,250.1 			"/>
			<polygon class="st33" points="260.1,254.1 255.9,254.1 255.6,250.1 259.8,250.1 			"/>
			<polygon class="st33" points="266.1,254.1 261.8,254.1 261.5,250.1 265.6,250.1 			"/>
			<polygon class="st33" points="272,254.1 267.8,254.1 267.3,250.1 271.4,250.1 			"/>
			<polygon class="st33" points="278,254.1 273.7,254.1 273.1,250.1 277.2,250.1 			"/>
			<polygon class="st33" points="283.9,254.1 279.6,254.1 278.9,250.1 283,250.1 			"/>
			<polygon class="st33" points="289.8,254.1 285.6,254.1 284.7,250.1 288.8,250.1 			"/>
			<polygon class="st33" points="295.8,254.1 291.5,254.1 290.5,250.1 294.6,250.1 			"/>
			<polygon class="st33" points="211.6,259.3 207.2,259.3 208.1,255.3 212.4,255.3 			"/>
			<polygon class="st33" points="217.7,259.3 213.4,259.3 214.1,255.3 218.4,255.3 			"/>
			<polygon class="st33" points="223.8,259.3 219.5,259.3 220.1,255.3 224.3,255.3 			"/>
			<polygon class="st33" points="230,259.3 225.6,259.3 226,255.3 230.3,255.3 			"/>
			<polygon class="st33" points="236.1,259.3 231.7,259.3 232,255.3 236.3,255.3 			"/>
			<polygon class="st33" points="242.2,259.3 237.8,259.3 238,255.3 242.3,255.3 			"/>
			<polygon class="st33" points="248.3,259.3 243.9,259.3 244,255.3 248.3,255.3 			"/>
			<polygon class="st33" points="254.4,259.3 250.1,259.3 250,255.3 254.2,255.3 			"/>
			<polygon class="st33" points="260.5,259.3 256.2,259.3 255.9,255.3 260.2,255.3 			"/>
			<polygon class="st33" points="266.7,259.3 262.3,259.3 261.9,255.3 266.2,255.3 			"/>
			<polygon class="st33" points="272.8,259.3 268.4,259.3 267.9,255.3 272.2,255.3 			"/>
			<polygon class="st33" points="278.9,259.3 274.5,259.3 273.9,255.3 278.2,255.3 			"/>
			<polygon class="st33" points="285,259.3 280.6,259.3 279.9,255.3 284.1,255.3 			"/>
			<polygon class="st33" points="291.1,259.3 286.8,259.3 285.9,255.3 290.1,255.3 			"/>
			<polygon class="st33" points="297.3,259.3 292.9,259.3 291.8,255.3 296.1,255.3 			"/>
			<polygon class="st33" points="210.6,264.5 206.1,264.5 207,260.5 211.4,260.5 			"/>
			<polygon class="st33" points="216.9,264.5 212.4,264.5 213.1,260.5 217.5,260.5 			"/>
			<polygon class="st33" points="223.2,264.5 218.7,264.5 219.3,260.5 223.7,260.5 			"/>
			<polygon class="st33" points="229.5,264.5 225,264.5 225.4,260.5 229.9,260.5 			"/>
			<polygon class="st33" points="235.8,264.5 231.3,264.5 231.6,260.5 236,260.5 			"/>
			<polygon class="st33" points="242.1,264.5 237.6,264.5 237.8,260.5 242.2,260.5 			"/>
			<polygon class="st33" points="248.4,264.5 243.9,264.5 243.9,260.5 248.3,260.5 			"/>
			<polygon class="st33" points="254.7,264.5 250.2,264.5 250.1,260.5 254.5,260.5 			"/>
			<polygon class="st33" points="261,264.5 256.5,264.5 256.2,260.5 260.6,260.5 			"/>
			<polygon class="st33" points="267.3,264.5 262.8,264.5 262.4,260.5 266.8,260.5 			"/>
			<polygon class="st33" points="273.5,264.5 269,264.5 268.5,260.5 273,260.5 			"/>
			<polygon class="st33" points="279.8,264.5 275.3,264.5 274.7,260.5 279.1,260.5 			"/>
			<polygon class="st33" points="286.1,264.5 281.6,264.5 280.9,260.5 285.3,260.5 			"/>
			<polygon class="st33" points="292.4,264.5 287.9,264.5 287,260.5 291.4,260.5 			"/>
			<polygon class="st33" points="299.6,267.7 295,267.7 293.2,260.5 297.6,260.5 			"/>
			<polygon class="st33" points="209.6,269.7 205,269.7 205.9,265.7 210.4,265.7 			"/>
			<polygon class="st33" points="216.1,269.7 211.5,269.7 212.2,265.7 216.7,265.7 			"/>
			<polygon class="st33" points="222.6,269.7 217.9,269.7 218.5,265.7 223.1,265.7 			"/>
			<polygon class="st33" points="229,269.7 224.4,269.7 224.9,265.7 229.4,265.7 			"/>
			<polygon class="st33" points="235.5,269.7 230.9,269.7 231.2,265.7 235.7,265.7 			"/>
			<polygon class="st33" points="242,269.7 237.3,269.7 237.5,265.7 242.1,265.7 			"/>
			<polygon class="st33" points="248.4,269.7 243.8,269.7 243.9,265.7 248.4,265.7 			"/>
			<polygon class="st33" points="254.9,269.7 250.3,269.7 250.2,265.7 254.7,265.7 			"/>
			<polygon class="st33" points="261.4,269.7 256.7,269.7 256.5,265.7 261,265.7 			"/>
			<polygon class="st33" points="267.8,269.7 263.2,269.7 262.9,265.7 267.4,265.7 			"/>
			<polygon class="st33" points="274.3,269.7 269.7,269.7 269.2,265.7 273.7,265.7 			"/>
			<polygon class="st33" points="286.9,269.7 276.1,269.7 275.5,265.7 286.1,265.7 			"/>
			<polygon class="st33" points="287.3,269.7 282.6,269.7 281.9,265.7 286.4,265.7 			"/>
			<polygon class="st33" points="293.7,269.7 289.1,269.7 288.2,265.7 292.7,265.7 			"/>
			<polygon class="st33" points="300.2,269.7 295.6,269.7 294.5,265.7 299,265.7 			"/>
			<path class="st34" d="M181.4,278.2c0,0-4.9-6-5-7.4c0.1-2,0.7-3.9,1.9-5.5c1.1-1.3,6.3-3.1,8.3-2.6c0,0,0.9-4.8,1.6-4.9
				c1.6,0.1,3.1,0.3,4.7,0.6l0.6,5.1c0,0,3.2,2.3,3.6,3.6s-1.6,7.8-1.6,7.8L181.4,278.2z"/>
			<polygon class="st35" points="193.4,263.5 193.5,268.6 194.7,264.5 			"/>
			<ellipse class="st1" cx="250" cy="430.3" rx="67" ry="12.3"/>
			<path class="st36" d="M273.4,214.5c4.6-0.3,8.1-3.5,9.9-6.2c0.4-0.5,0.7-1.1,1-1.7c1.4-2.8,2-12.8-1.3-15.2
				c-2.3-1.7-4.1,0.6-5,2.2l0,0c-0.2,0.4-0.4,0.8-0.6,1.2L273.4,214.5z"/>
			<path class="st34" d="M272.9,214.7c4.6-0.3,8.5-3.7,10.4-6.4c0.2-0.3,0.3-0.5,0.4-0.8c1.4-2.8,2-12.8-1.3-15.2
				c-1.9-1.4-3.4-0.1-4.4,1.2l0,0c-0.2,0.4-0.4,0.8-0.6,1.2L272.9,214.7z"/>
			<path class="st36" d="M230,214.5c-4.6-0.3-8.1-3.5-9.9-6.2c-0.4-0.5-0.7-1.1-1-1.7c-1.4-2.8-2.1-12.8,1.3-15.2
				c2.3-1.7,4.1,0.6,5,2.2l0,0c0.2,0.4,0.4,0.8,0.6,1.2L230,214.5z"/>
			<path class="st34" d="M230.5,214.7c-4.6-0.3-8.6-3.7-10.4-6.4c-0.2-0.3-0.3-0.5-0.4-0.8c-1.4-2.8-2.1-12.8,1.3-15.2
				c1.9-1.4,3.4-0.1,4.4,1.2l0,0c0.2,0.4,0.4,0.8,0.6,1.2L230.5,214.7z"/>
			<path class="st34" d="M240.2,243.6c1.6-1.3,1.2-19.6,1.2-19.6l20.8-0.2c0,0,0.7,18.8,1.1,19.9c0.2,0.6,1.4,1.6,3.1,2.7
				c-3.7,3.5-7.5,7.3-12.4,7.7c-12.5,1.1-15.1-5.8-16.6-7.7C238.3,245.5,239.3,244.6,240.2,243.6z"/>
			<path class="st34" d="M225.9,199.2c0,0,4.4,21.3,9.4,26.6c0.2,0.2,0.4,0.4,0.6,0.6c0.2,0.2,0.4,0.4,0.6,0.5c0,0,0,0,0.1,0
				c0.2,0.1,0.4,0.3,0.6,0.4l0.5,0.3l0.4,0.3c0.4,0.3,0.9,0.5,1.4,0.8c0.3,0.1,0.5,0.3,0.8,0.4h0.1l0.8,0.3c0.6,0.2,1.1,0.4,1.7,0.6
				c5.9,2,12.3,2,18.3,0c0.6-0.2,1.1-0.4,1.6-0.6l0.8-0.3h0.1l0.8-0.4c0.3-0.1,0.5-0.3,0.8-0.4l0,0l0.7-0.4l0.8-0.5l0.6-0.5
				c0.2-0.2,0.4-0.3,0.6-0.5s0.4-0.4,0.6-0.6c0.3-0.3,0.5-0.5,0.7-0.8s0.5-0.7,0.7-1s0.3-0.5,0.4-0.8s0.1-0.3,0.2-0.4
				c0.3-0.6,0.6-1.2,0.8-1.8c0.1-0.2,0.1-0.3,0.2-0.5c3.4-8.2,5.7-21.3,5.7-21.3c0.2-0.4,0.3-0.9,0.4-1.3c0.1-0.5,0.2-0.9,0.3-1.4
				c0-0.3,0.1-0.5,0.1-0.8l0.1-0.8c0.1-0.5,0.1-1,0.2-1.6V193l0,0l0.1-0.8c0-0.3,0-0.5,0-0.8c0.2-3.6,0.2-7.2-0.1-10.8
				c0,0,0-0.6-0.1-1.6c0-0.1,0-0.3,0-0.4s0-0.3,0-0.5s0-0.4-0.1-0.6s-0.1-0.6-0.1-1c-0.1-0.6-0.2-1.3-0.4-2c0-0.2-0.1-0.5-0.1-0.7
				c-0.2-1-0.5-1.9-0.8-2.9c-0.1-0.2-0.1-0.4-0.2-0.6c-0.3-0.8-0.6-1.6-1-2.4c-0.1-0.2-0.2-0.4-0.3-0.6s-0.3-0.5-0.4-0.7l-0.4-0.6
				c0-0.1-0.1-0.1-0.1-0.2l0,0c-0.7-1-1.5-1.9-2.4-2.7c-2.7-2.3-6.8-2.6-10.5-2.2c-6.3,0.6-12.6,0.6-18.9,0
				c-3.8-0.4-7.8-0.1-10.5,2.2c-3.2,2.6-4.8,7.1-5.7,10.9c-0.5,2.2-0.8,4.5-0.9,6.8c0,0-0.2,1.2-0.3,3.1
				C224.7,187.7,224.4,194.9,225.9,199.2z"/>
			<path class="st27" d="M219.8,175.5c0.2,1.7,0.6,4.1,0.9,6.6l1.2,8.7l3.8,3.4l2.5-20.4c0,0,3-4.1,4.8-6.8c0.9,1.2,2.1,2.1,3.5,2.8
				c2.6,1.2,5.3,2,8.1,2.4l-1.6-3.4c5.8,4.7,13.3,6.7,20.7,5.2l-3.4-3c5,0.6,9.2,0.4,13.7-1.7l3.8,25.3l5.5-3.3c0,0,0.7-4.2,1.3-9.1
				c0.7-5.5,1.2-12,0.5-14.5c-0.5-1.8-1.3-3.4-2.4-4.9c2-2,3.5-4.5,4.6-7.1c-8-0.5-14.8-5.7-22.4-7.9c-5.3-1.4-10.9-1.4-16.2,0
				c0.8-1.3,1.8-2.4,3-3.3c-3.2,0-6.3,0.4-9.3,1.3c0,0-5,2.2-6.9,6c0,0-4.3-3-4.4-7.4c0,0-7.2,7.4-4,12.4
				C226.9,157,219.2,170.9,219.8,175.5z"/>
			<path class="st26" d="M219.8,175.5c0.2,1.7,0.6,4.1,0.9,6.6c2.6-2.9,4.2-6.6,4-10.1c2.2-1.9,4.2-4.1,6-6.5c1-1.2,2.1-2.6,2.3-4.1
				c1.9,2.5,4.4,4.5,7.4,5.7c-0.4-1.5-0.4-3.1-0.1-4.6c4.4,3.6,10,5.4,15.7,5l-1.4-3.2c8.2,2.5,17.2,3.5,25.7,2
				c-1.5,3.6-1.4,7.6,0.3,11.1c0.9,1.9,2.2,3.6,3.9,5c0.7-5.5,1.2-12,0.5-14.5c-0.5-1.8-1.3-3.4-2.4-4.9c1.9-2,3.4-4.3,4.5-6.8
				c0-0.1,0.1-0.2,0.1-0.3c-8-0.5-14.8-5.7-22.4-7.9c-5.3-1.4-10.9-1.4-16.2,0c0.8-1.3,1.8-2.4,3-3.3c-3.2,0-6.3,0.4-9.3,1.3
				c0,0-5,2.2-6.9,6c0,0-4.3-3-4.4-7.4c0,0-7.2,7.4-4,12.4c0,0-1.6,2.8-3.3,6.4C221.6,167.6,219.4,172.9,219.8,175.5z"/>
			<path class="st37" d="M223.6,163.4c4.2-1.6,7.9-4.4,10.7-7.9c1.4,2,3.3,3.6,5.5,4.6c-0.4-1.7-0.2-3.5,0.8-5c3.2,4,8,6.2,13.1,6
				c-1-1.4-1.5-3.1-1.6-4.8c10.7,6.5,24.2,6.5,34.8-0.1c0-0.1,0.1-0.2,0.1-0.3c-8-0.5-14.8-5.7-22.4-7.9c-5.3-1.4-10.9-1.4-16.2,0
				c0.8-1.3,1.8-2.4,3-3.3c-3.2,0-6.3,0.4-9.3,1.3c0,0-5,2.2-6.9,6c0,0-4.3-3-4.4-7.4c0,0-7.2,7.4-4,12.4
				C226.9,157,225.3,159.9,223.6,163.4z"/>
			<path class="st26" d="M280.6,191l-2.1,2.9c-1.4,2.2-2.2,4.7-2.4,7.3l-1.2,5.3l-0.7,3.1l-0.7,3.2l-6.7,9.6c0,0-3.5,4.1-15,3.7
				c-11.6,0.4-15-3.7-15-3.7l-6.8-9.6l-0.7-3.2l0,0l-0.6-2.9l-1.2-5.5c-0.2-2.6-1-5.1-2.4-7.3l-1.9-3.1l1.4-16.4l9.4-11l17.8,5.7
				l17.8-5.7l9.4,11L280.6,191z"/>
			<path class="st27" d="M275.4,202.7l-0.7,3.3l-0.7,3.4l-6.9,10.4c0,0-3.5,4.4-15.4,4c-11.8,0.4-15.4-4-15.4-4l-6.9-10.4l-0.7-3.4
				l0,0l-0.6-3.1c2.9,3.2,7.7,8.2,9,8.9c1.8,0.9,6.8,2,14.1,2.1h1c7.3-0.1,12.3-1.2,14.1-2.1C267.5,211.1,272.5,205.8,275.4,202.7z"
				/>
			<path class="st38" d="M237.2,404.9c-0.2,3.2-11.4,1.9-11.4,1.9s-11.2-1.2-10.7-4.4c0.3-1.1,0.7-2.2,1.4-3.2
				c1.2-1.9,2.7-3.7,4.2-5.3c2.9-0.6,10.3,0.2,13,1.5c1.1,1.9,2.1,4,2.9,6.1C237,402.5,237.2,403.7,237.2,404.9z"/>
			<path class="st10" d="M237.2,404.9c-0.2,3.2-11.4,1.9-11.4,1.9s-11.2-1.2-10.7-4.4c0.3-1.1,0.7-2.2,1.4-3.2
				c3.3-0.8,10.1,0.1,10.1,0.1s6.9,0.6,9.9,2.2C237,402.5,237.2,403.7,237.2,404.9z"/>
			<path class="st39" d="M236.8,404.2c-2.7-1.8-10.4-2.4-10.4-2.4s-7.6-1-10.7,0.1s0.5,17.8,8.5,19.6
				C232.4,421.5,239.5,406,236.8,404.2z"/>
			<path class="st40" d="M221.1,352c0,0-5.1,22.8-7,41.6l24.8,2.2l4-36.1C242.8,359.7,238.4,349.8,221.1,352z"/>
			<path class="st38" d="M286.2,401.9c0.5,3.3-10.7,4.4-10.7,4.4s-11.2,1.2-11.4-2.2c0-1.2,0.2-2.4,0.7-3.5c0.8-2.2,1.8-4.3,3-6.3
				c2.6-1.3,10.1-2,13-1.3c1.5,1.7,2.9,3.6,4.1,5.6C285.5,399.6,285.9,400.7,286.2,401.9z"/>
			<path class="st10" d="M286.2,401.9c0.5,3.3-10.7,4.4-10.7,4.4s-11.2,1.2-11.4-2.2c0-1.2,0.2-2.4,0.7-3.5c3.1-1.6,9.9-2.1,9.9-2.1
				s6.8-0.9,10.1,0.1C285.5,399.6,285.9,400.7,286.2,401.9z"/>
			<path class="st39" d="M285.6,401.4c-3-1.2-10.7-0.2-10.7-0.2s-7.7,0.6-10.4,2.4s4.3,18,12.5,18.1
				C285,419.8,288.7,402.6,285.6,401.4z"/>
			<path class="st40" d="M282.2,352l5.3,40l-24.6,3.1l-2.7-35.8C260.3,359.4,264.9,349.6,282.2,352z"/>
			<path class="st40" d="M218.3,326c0,0-0.9,19.3,7.9,22.3s23.5,3,23.5,3v-18.4L218.3,326z"/>
			<path class="st40" d="M285.5,326c0,0,1,19.3-7.9,22.3s-23.5,3-23.5,3v-18.4L285.5,326z"/>
			<path class="st4" d="M251.7,242.2v90.7c0,0,22.4-0.7,27.1-3.6s2.7-8.7,3.9-12s1.5-40.9,0-51c0,0-0.1-9,3.4-16.4
				c0,0-16.4-8.2-19.7-9.6C261.6,241.5,256.7,242.2,251.7,242.2z"/>
			<path class="st4" d="M252.6,242.2v90.7c0,0-22.4-0.7-27.1-3.6s-2.7-8.7-3.9-12s-1.6-40.9,0-51c0,0,0.1-9-3.4-16.4
				c0,0,16.4-8.2,19.7-9.6C242.7,241.9,247.7,242.6,252.6,242.2z"/>
			<polygon class="st35" points="314.6,263.2 313.8,267.7 313.4,263.6 			"/>
			<path class="st4" d="M218.3,249.9c-5.2,2.7-9,7.5-10.3,13.2c-1.8,6.5-4.3,12.8-7.6,18.7c0,0-3.4-6.6-4-8.6c0,0-10.3-7.1-17.7,3.9
				c0,0,9.4,25.6,17.4,27.2s27.8-23.6,27.8-23.6l2.5-21.1L218.3,249.9z"/>
			<path class="st6" d="M312.5,268.5c-0.1-2.9-0.8-9.4,4-9.8s13.2,1.5,12,8.7c0.5,6-7.1,11.2-11.8,8.7S312.6,272,312.5,268.5z"/>
			<path class="st34" d="M311.1,272.5c0,0-1.1-5.5,0-7.7c0.4-0.8,3.5-1.6,3.5-1.6l2.4-3.2c0,0,8.9,1.2,11.7,4.2c3.2,2.7,1,7.8,1,7.8
				s-3.5,6.7-7.5,6.7C316.7,277.9,311.2,274.9,311.1,272.5z"/>
			<polygon class="st35" points="314.6,263.2 313.8,267.7 313.4,263.6 			"/>
			<path class="st4" d="M326.3,279.4c-4.3,6.3-16.4,23.6-22.9,24.9c-1.9,0.4-4.3-0.8-6.8-2.9c-7.7-6.4-16.3-20.8-16.3-20.8
				l-2.5-21.1l8.2-9.7c5.2,2.6,9,7.5,10.3,13.2c1.8,6.5,4.3,12.8,7.5,18.7l0,0c0.3-0.3,4.6-5.8,5.2-7.7c1.5-1.7,3.4-2.9,5.5-3.8
				c3.5-1.3,8-1.1,12.1,5.5C327.4,277,327.3,278.5,326.3,279.4z"/>
			<path class="st6" d="M209.6,428.2l40-11.3v-11.6c0,0-28.7,12.3-34.5,14.5S208.3,424.3,209.6,428.2z"/>
			<path class="st6" d="M249.4,355h1.9c1.3,0,2.4,1.1,2.4,2.4v57.2c0,1.3-1.1,2.4-2.4,2.4h-1.9c-1.3,0-2.4-1.1-2.4-2.4v-57.2
				C247.1,356.1,248.1,355,249.4,355z"/>
			<circle class="st12" cx="212.4" cy="430.6" r="5.5"/>
			<circle class="st33" cx="212.4" cy="430.6" r="2.4"/>
			<path class="st6" d="M291.4,428.2l-40-11.3v-11.6c0,0,28.7,12.3,34.5,14.5S292.7,424.3,291.4,428.2z"/>
			<circle class="st12" cx="288.6" cy="430.6" r="5.5"/>
			<circle class="st33" cx="288.6" cy="430.6" r="2.4"/>
			<path class="st12" d="M297.2,284.4c-0.5,24.3-9.9,59.6-45.1,58.6c-35.3,1-44.7-34.3-45.1-58.6c-0.2-5.1,0.2-10.3,1-15.4
				c3.5-18.8,40.5-19.2,44.1-19.2s40.6,0.4,44.1,19.2C297,274.1,297.4,279.3,297.2,284.4z"/>
			<path class="st12" d="M246.1,361.1c0,0-13.4,0.3-24-4c-6.5-2.6-7.9-7.9-7.3-11.3c0.4-2.1,1.6-3.4,2.8-2.7
				c3.1,1.9,17.8,4.1,26.3,4.1l1.7,10.8L246.1,361.1z"/>
			<path class="st12" d="M279.2,357.2c-10.6,4.3-24,4-24,4l0.5-3l1.7-10.8c8.5,0,23.2-2.1,26.3-4.1c1.2-0.8,2.4,0.5,2.8,2.7
				C287.1,349.3,285.7,354.6,279.2,357.2z"/>
			<path class="st31" d="M245.7,358.1c-2.4,0-14.1-0.2-23.5-4c-4.8-1.9-6.8-5.3-7.3-8.3c0.4-2.1,1.6-3.4,2.8-2.7
				c3.1,1.9,17.8,4.1,26.3,4.1L245.7,358.1z"/>
			<path class="st31" d="M286.5,345.9c-0.5,3-2.5,6.3-7.3,8.3c-9.5,3.8-21.1,4-23.6,4l1.7-10.8c8.5,0,23.2-2.1,26.3-4.1
				C284.9,342.5,286.1,343.8,286.5,345.9z"/>
			<path class="st10" d="M239,234.6l-1,5.7c0,0,3.3,2.7,14.5,2.7c11.3,0,13.8-2.7,13.8-2.7l-1.4-5.1
				C256.3,236.5,247.5,236.3,239,234.6z"/>
			<path class="st34" d="M314.9,263.7l-0.3-0.4c0,0,0.9-5,2-5c1-0.4,3.9-0.6,4.6,0.3s0.6,4.9,0.6,4.9L314.9,263.7z"/>
			<path class="st31" d="M297.2,284.4c-0.5,24.3-9.9,59.6-45.1,58.6c-35.3,1-44.7-34.3-45.1-58.6c0.1-3.2,0.4-6.4,1-9.5
				c3.5-18.8,40.6-19.2,44.2-19.2s40.7,0.4,44.2,19.2C296.8,278.1,297.1,281.2,297.2,284.4z"/>
			<path class="st6" d="M248.1,304.4h5.2c3.5,0,6.4,2.9,6.4,6.4v47.4c0,3.5-2.9,6.4-6.4,6.4h-5.2c-3.5,0-6.4-2.9-6.4-6.4v-47.4
				C241.7,307.2,244.5,304.4,248.1,304.4z"/>
			<polygon class="st10" points="327.9,254.3 354.8,278.8 383.8,275.5 356.6,251.3 			"/>
			<polygon class="st5" points="343,257.1 362.2,281.7 397.9,281.4 376.4,257.1 			"/>
			<path class="st41" d="M156.5,251.4H123c-3.6,0-6.5-2.3-6.5-5.2l0,0c0-2.9,2.9-5.2,6.5-5.2h33.4L156.5,251.4z"/>
			<path class="st42" d="M156.3,249.9h-32.6c-2.5,0-4.6-1.6-4.6-3.6l0,0c0-2,2-3.6,4.6-3.6h32.6c0.1,0,0.2,0.1,0.2,0.2l0,0v6.9
				C156.5,249.8,156.4,249.9,156.3,249.9z"/>
			<polygon class="st43" points="141.1,263.5 142.7,262 156.5,242.3 156.5,249.7 142.4,269.1 			"/>
			<path class="st41" d="M142.7,270.7h-33.5c-3.6,0-6.5-2.3-6.5-5.2l0,0c0-2.9,2.9-5.2,6.5-5.2h33.4L142.7,270.7z"/>
			<path class="st42" d="M142.4,269.1h-32.6c-2.5,0-4.6-1.6-4.6-3.6l0,0c0-2,2.1-3.6,4.6-3.6h32.6c0.1,0,0.2,0.1,0.2,0.2l0,0v6.9
				C142.6,269.1,142.5,269.1,142.4,269.1z"/>
			<polygon class="st41" points="141.1,269.6 142.4,269.1 156.5,249.7 156.5,251.4 142.7,270.7 			"/>
			<polygon class="st41" points="104.5,264.9 104.1,262.3 117.7,243.3 120.2,241.8 154.4,241.7 156.3,242.6 142.6,262 108.4,260.8 
				105.9,262.3 			"/>
			<path class="st44" d="M151.4,242.1H121c-3.3,0-5.9-2.1-5.9-4.7l0,0c0-2.6,2.7-4.7,5.9-4.7h30.4V242.1z"/>
			<path class="st42" d="M151.2,240.7h-29.6c-2.3,0-4.2-1.5-4.2-3.3l0,0c0-1.8,1.9-3.3,4.2-3.3h29.6c0.1,0,0.2,0.1,0.2,0.2l0,0v6.3
				C151.4,240.6,151.3,240.7,151.2,240.7L151.2,240.7z"/>
			<polygon class="st43" points="137.4,253.1 138.8,251.8 151.4,233.8 151.4,240.6 138.6,258.2 			"/>
			<path class="st44" d="M138.8,259.6h-30.4c-3.3,0-5.9-2.1-5.9-4.7l0,0c0-2.6,2.7-4.7,5.9-4.7h30.4V259.6z"/>
			<path class="st42" d="M138.6,258.2H109c-2.3,0-4.2-1.5-4.2-3.3l0,0c0-1.8,1.9-3.3,4.2-3.3h29.6c0.1,0,0.2,0.1,0.2,0.2l0,0v6.3
				C138.8,258.1,138.7,258.2,138.6,258.2L138.6,258.2z"/>
			<polygon class="st44" points="137.4,258.7 138.6,258.2 151.4,240.6 151.4,242.1 138.8,259.6 			"/>
			<polygon class="st44" points="104.2,254.4 103.7,252 116.2,234.7 118.4,233.4 149.4,233.3 151.2,234.1 138.8,251.8 107.7,250.7 
				105.4,252 			"/>
			<path class="st45" d="M156.1,230.3h-30.4c-3.3,0-5.9-2.1-5.9-4.7l0,0c0-2.6,2.7-4.7,5.9-4.7h30.4V230.3z"/>
			<path class="st42" d="M155.9,228.9h-29.6c-2.3,0-4.2-1.5-4.2-3.3l0,0c0-1.8,1.9-3.3,4.2-3.3h29.6c0.1,0,0.2,0.1,0.2,0.2l0,0v6.3
				C156.1,228.9,156,228.9,155.9,228.9L155.9,228.9z"/>
			<polygon class="st43" points="142.1,241.3 143.5,240 156.1,222.1 156.1,228.8 143.3,246.4 			"/>
			<path class="st45" d="M143.5,247.8h-30.4c-3.3,0-5.9-2.1-5.9-4.7l0,0c0-2.6,2.7-4.7,5.9-4.7h30.4V247.8z"/>
			<path class="st42" d="M143.3,246.4h-29.6c-2.3,0-4.2-1.5-4.2-3.3l0,0c0-1.8,1.9-3.3,4.2-3.3h29.6c0.1,0,0.2,0.1,0.2,0.2l0,0v6.3
				C143.5,246.4,143.4,246.4,143.3,246.4L143.3,246.4z"/>
			<polygon class="st45" points="142.1,246.9 143.3,246.4 156.1,228.8 156.1,230.3 143.5,247.8 			"/>
			<polygon class="st45" points="108.9,242.6 108.4,240.3 120.8,222.9 123.1,221.6 154.1,221.6 155.9,222.3 143.5,240 112.4,238.9 
				110.1,240.3 			"/>
			<path class="st46" d="M451.9,168.6l1.9,2.7c-0.8-6.4,0.3-12.9,3-18.7v4.8l4.3-11.1c4.5,6.9,6.5,15.1,5.7,23.2
				c0.4-1.5,1.2-2.9,2.2-4.1c1.1,2.2,1.4,4.6,0.9,7l2-2c1.8,4.4,0.5,9.5-3.1,12.6c-3.4,2.8-10.5,3.5-14.3,1.1
				C449.9,181.2,450.1,172.9,451.9,168.6z"/>
			<path class="st3" d="M457.9,182.1c0,0-3.9-9.5-1.7-18.4c0,0,0.8,4.5,1.6,5.6c0,0,0.4-10.1,3.3-15.3c0,0,5.2,8.9,3.4,18.9
				c0.8-1.1,1.8-2,3-2.6c0,0,1.4,7.4-1.4,11.9L457.9,182.1L457.9,182.1z"/>
			<polygon class="st47" points="470.5,198.5 453,198.5 449.6,180.9 473.8,180.9 			"/>
			<rect x="448.4" y="180.9" class="st48" width="26.6" height="3.9"/>
			<polygon class="st7" points="408.6,218.2 400.7,204.8 408.6,204.8 			"/>
			<polygon class="st7" points="462,218.2 470,204.8 462,204.8 			"/>
			<rect x="390.1" y="198.4" class="st8" width="90.4" height="7.4"/>
			<path class="st49" d="M442.2,198.5h-34c-3.7,0-6.6-3-6.6-6.6l0,0l0,0c0-3.7,3-6.6,6.6-6.6l0,0h34V198.5z"/>
			<path class="st42" d="M442,196.5h-33.1c-2.6,0-4.6-2.1-4.6-4.6l0,0l0,0c0-2.6,2.1-4.7,4.6-4.7l0,0H442c0.1,0,0.2,0.1,0.2,0.2l0,0
				v8.9C442.2,196.4,442.1,196.5,442,196.5L442,196.5z"/>
			<path class="st50" d="M436.4,185.2h-34c-3.7,0-6.6-3-6.6-6.6l0,0l0,0c0-3.7,3-6.6,6.6-6.6l0,0h34V185.2z"/>
			<path class="st42" d="M436.2,183.3h-33.1c-2.6,0-4.7-2.1-4.7-4.6l0,0l0,0c0-2.6,2.1-4.7,4.6-4.7l0,0h33.1c0.1,0,0.2,0.1,0.2,0.2
				l0,0v8.9C436.4,183.2,436.3,183.3,436.2,183.3L436.2,183.3z"/>
			<path class="st51" d="M440.7,172h-34c-3.7,0-6.6-3-6.6-6.6l0,0l0,0c0-3.7,3-6.6,6.6-6.6l0,0h34V172z"/>
			<path class="st42" d="M440.5,170h-33.1c-2.6,0-4.6-2.1-4.6-4.7l0,0l0,0c0-2.6,2.1-4.6,4.6-4.6l0,0h33.1c0.1,0,0.2,0.1,0.2,0.2
				l0,0v8.9C440.7,169.9,440.6,170,440.5,170L440.5,170z"/>
			<circle class="st11" cx="430" cy="90.5" r="40.6"/>
			<circle class="st4" cx="433.5" cy="90.5" r="40.2"/>
			<circle class="st12" cx="433.5" cy="90.5" r="28.6"/>
			<path class="st5" d="M433.5,124.1c-18.5,0-33.6-15-33.6-33.5s15-33.6,33.5-33.6S467,72,467,90.5l0,0C467,109,452,124,433.5,124.1
				z M433.5,63.1c-15.2,0-27.4,12.3-27.4,27.5s12.3,27.4,27.5,27.4S461,105.7,461,90.5C460.9,75.4,448.6,63.1,433.5,63.1z"/>
			<circle class="st4" cx="433.5" cy="90.5" r="17.5"/>
			<path class="st4" d="M433.5,111.1c-11.3,0-20.6-9.2-20.6-20.5S422.1,70,433.4,70S454,79.2,454,90.5l0,0
				C454,101.9,444.8,111,433.5,111.1z M433.5,76.1c-8,0-14.4,6.5-14.4,14.4c0,8,6.5,14.4,14.4,14.4c8,0,14.4-6.5,14.4-14.4l0,0
				C447.9,82.5,441.4,76.1,433.5,76.1L433.5,76.1z"/>
			<circle class="st5" cx="433.5" cy="90.5" r="8.6"/>
			<circle class="st12" cx="433.5" cy="90.5" r="3.9"/>
			<path class="st52" d="M444.6,82.3c-0.9,1.6-2.2,3-3.7,4.2c-0.9,0.7-2.2,0.8-3.2,0.2l-0.9-0.4l0.1-0.7c-0.1-1.2,0.4-2.4,1.4-3
				c1.6-1,3.4-1.5,5.3-1.5L444.6,82.3z"/>
			<path class="st52" d="M443.4,81.8c0,0-0.2-5.3,2.3-5.6C448.6,75.9,447.3,80.4,443.4,81.8z"/>
			<path class="st52" d="M443.4,82.1c0,0,3.1-4.3,5.3-2.9S447.4,83.5,443.4,82.1z"/>
			<path class="st39" d="M440.9,86.5c-0.9,0.7-2.2,0.8-3.2,0.2l-0.9-0.4l0.1-0.7c-0.1-1.2,0.4-2.4,1.4-3
				C438.5,84.2,439.5,85.7,440.9,86.5z"/>
			<polygon class="st39" points="433.1,89 437,85.5 437.7,86.7 			"/>
			<path class="st53" d="M444,100.2c-1.5,1.2-3.2,2-5,2.5c-1.1,0.3-2.3-0.1-3-1l-0.7-0.7l0.4-0.6c0.3-1.2,1.2-2.1,2.4-2.3
				c1.8-0.3,3.8-0.1,5.5,0.6L444,100.2z"/>
			<path class="st53" d="M443,99.2c0,0,1.8-5,4.2-4.4C450,95.7,447.2,99.4,443,99.2z"/>
			<path class="st53" d="M442.9,99.6c0,0,4.5-2.8,6-0.8S446.1,102.3,442.9,99.6z"/>
			<path class="st39" d="M439,102.7c-1.1,0.3-2.3-0.1-3-1l-0.7-0.7l0.4-0.6c0.3-1.2,1.2-2.1,2.4-2.3C437.6,99.7,438,101.4,439,102.7
				z"/>
			<polygon class="st39" points="430.9,102.2 435.7,100.4 436,101.7 			"/>
			<rect x="188.2" y="116.5" class="st0" width="12.8" height="12.8"/>
			<polygon class="st4" points="197.9,123.1 191.3,119.3 191.3,126.9 			"/>
			<ellipse class="st1" cx="454" cy="342.8" rx="27.6" ry="4.2"/>
			<path class="st5" d="M479.2,318c0,6.2-2.3,12.3-6.5,16.9c-9.4,10.3-25.3,11-35.6,1.6c-0.6-0.6-1.2-1.2-1.8-1.8l0,0
				c-8.7-9.7-8.4-24.4,0.5-33.9c9.6-10.1,25.5-10.5,35.7-0.9c0.4,0.4,0.7,0.7,1.1,1.1c2.8,2.9,4.8,6.5,5.8,10.4
				C478.9,313.5,479.2,315.8,479.2,318z"/>
			<polygon class="st12" points="454,308.3 456.9,314 463.2,314.9 458.6,319.4 459.7,325.6 454,322.7 448.4,325.6 449.4,319.4 
				444.9,314.9 451.2,314 			"/>
			<path class="st12" d="M458.6,296.3l1.1,6.3l-5.7-3l-5.7,3l1.1-6.3l-2.4-2.4c4.6-1.3,9.4-1.3,14,0L458.6,296.3z"/>
			<path class="st12" d="M463.2,338.4l-4.3,4.2c-3.2,0.6-6.5,0.6-9.7,0l-4.3-4.2l6.3-0.9l2.8-5.7l2.8,5.7L463.2,338.4z"/>
			<path class="st12" d="M478.2,324.8c-1.1,3.7-3,7.1-5.6,10l-3.1,1.6l1.1-6.3l-4.6-4.5l6.3-0.9l2.8-5.7l2.8,5.7L478.2,324.8z"/>
			<path class="st12" d="M478.3,311.3l-3-1.6l-5.7,3l1.1-6.3l-4.6-4.5l6.3-0.9v-0.1C475.2,303.9,477.2,307.4,478.3,311.3z"/>
			<path class="st12" d="M437.6,330.2l1.1,6.3l-3.5-1.8l0,0c-2.5-2.8-4.4-6.2-5.4-9.8h0.4l2.8-5.7l2.8,5.7l6.3,0.9L437.6,330.2z"/>
			<path class="st12" d="M437.6,306.4l1.1,6.3l-5.7-3l-3.3,1.7c1.1-4,3.1-7.7,6-10.7l0.1,0.3l6.3,0.9L437.6,306.4z"/>
			<path class="st32" d="M479.2,318c0,6.2-2.3,12.3-6.5,16.9c-9.4,10.3-25.3,11-35.6,1.6c-0.6-0.6-1.2-1.2-1.8-1.8l0,0
				c-0.8-0.8-1.4-1.7-2.1-2.7c2.5,1.6,5.3,2.7,8.3,3.2c8.6,1.7,17.5-1.2,23.5-7.8c4.2-4.6,6.5-10.6,6.5-16.9c0-5-1.5-9.9-4.3-14
				c2,1.2,3.7,2.7,5.3,4.3c2.8,2.9,4.8,6.5,5.8,10.4C478.9,313.5,479.2,315.7,479.2,318z"/>
		</g>
		<g>
			<g>
				<path class="st54" d="M30,57.7c-0.1,23,3.7,42.5,15.8,62.1c1.3,1.9,2.8,3.9,4.2,5.8c4.3,5.8,9.2,10.9,14.8,15.6
					c1.8,1.4,3.7,2.9,5.6,4.4c2.9,2.4,5.9,4.2,9.2,6.2c3.5,2.3,6.3,3.7,9.9,5.6c0.8,0.4,0.5,0.1,1.6-0.4
					c10.7-5.8,21.3-13.4,29.4-21.7c4.9-5.1,8.5-9.5,12.5-15.3c8.8-13.8,13-27.6,14.8-43.9c0.5-4.4,0.5-9.2,0.5-13.8
					c0-1.4,0-3.2-0.1-4.8c-6.2,0-10.2-0.4-13.9-3c-3.8-2.9-4.3-7.1-4.3-11.5l-4.3,1.4c-1.4,0.5-3,1-4.4,1.4
					c-17,4.9-36.6,5.8-54.5,2.5c-5.4-1-11.1-2.5-16.3-4.8c-0.5-0.1-1.6-0.8-2.3-1c-0.1,2.5,0,4.4-1,6.8c-1.4,3.9-4.4,6.3-9.2,7.2
					C34.5,58.3,33.3,57.6,30,57.7z"/>
				<path class="st54" d="M150.9,56.5c0.4,14.4-0.4,26.1-4.3,39.9c-2.5,8.8-7.2,19.3-12.6,27.1c-1,1.1-1.4,2.3-2.4,3.2
					c-1.8,2.4-3.5,4.3-5.3,6.3c-3.9,4.4-10.3,10.5-15.2,14l-6.7,4.9c-1.6,1.1-5.6,3.7-7.2,4.8c-1.3,0.8-2.5,1.4-3.8,2.3
					c-0.8,0.4-1.3,0.8-1.9,1.1c-1.3,0.5-1.1,1-1.9,0.4c-1.3-0.8-2.8-1.3-3.9-1.9c-4.8-2.5-10.5-6.2-14.6-9.1
					c-6.7-4.9-12.5-10.2-17.7-15.9l-5.8-7.2c-5.3-7.1-8.8-14-12.1-22.3c-5.1-12.3-7.7-28.3-7.8-42.4c0-1,0-1.8,0-2.8
					c0-3.5-0.4-2.9,1.1-2.9c1.4,0.1,3,0.1,4.4,0.1c5.3-0.1,9.5-1.9,11.6-6.3c0.8-1.3,1.1-2.9,1.3-4.3c0.4-2.4,0-4.2,0.1-5.3l4.3,1.8
					c18.7,7.1,43.2,7.7,62.7,3.8c5.4-1.1,10.2-2.3,15.2-3.9l4.8-1.8c0,1.3-0.1,2.5,0,3.9c0.5,5.6,3,9.7,9.6,11.5
					C146.3,56.6,147.7,56.3,150.9,56.5L150.9,56.5z M24.3,52.9v8.5c0.1,0.5,0.1,3.8,0.1,4.8c0,1.6,0.1,3.2,0.4,4.9
					c1,9.6,1.9,16.4,4.8,26c3,10.5,7.8,20.2,13.4,28.4c5.1,7.7,10.7,13.8,17.5,19.7c1,1,1.9,1.6,2.9,2.5c1,0.9,5.1,3.9,6.2,4.8
					l3.2,2.3c4.2,2.8,9.2,5.8,13.8,8.1c0.8,0.4,3,1.6,3.8,1.8c0.5,0,9.5-5.4,10.2-5.8c1.1-0.8,2.4-1.4,3.2-2.3
					c1.9-1.4,4.2-2.8,6.2-4.3c6.3-4.4,11.1-9.2,16.9-14.8l2.5-2.8c5.8-6.7,10.7-13.9,14.5-21.7c4.8-9.9,8-20.1,9.6-30.8
					c0.5-2.9,1-5.8,1.1-8.8l0.5-9.2l0,0v-7.8l-0.1-3c-1.3,0-3,0.4-4.4,0.4c-1.6,0-3,0.1-4.8,0c-10.9-1.1-8.8-10.5-8.3-17.7
					c-0.5,0-4.2,1.8-5.1,1.9c-13.2,5.1-27.9,7.3-42.5,7.7c-15.9,0-30.9-2.4-44.8-8.5c-0.8-0.4-1.8-1-2.5-1.1
					c0.1,2.9,0.5,5.4,0.4,8.3c-0.1,2.5-1,5.1-2.4,6.7c-1.4,1.6-3.8,2.5-6.8,2.8c-1.6,0-3.2,0-4.9-0.1C27.5,53.3,24.7,52.7,24.3,52.9
					z"/>
				<path class="st5" d="M139,97.9H41.3c0.1,1,3.7,7.2,4.2,8.1c1.4,2.8,3,5.3,4.8,7.8c1.9,2.9,3.2,4.8,5.3,7.3
					c1,1.3,1.9,2.4,2.8,3.5l2.9,3.5c1.1,1.1,1.9,2.3,3,3.2c2.9,2.9,5.9,5.8,9.2,8.3c0.4,0.1,0.5,0.5,1,0.8c3.9,3,7.2,5.3,11.6,7.8
					c0.5,0.4,3.9,2.3,4.3,2.3c0.5,0,7.7-4.2,8.3-4.8c8.6-5.6,14-10.3,20.7-17.5c3.2-3.7,8.6-10.7,11-14.4l2.4-3.8
					c1.9-3,3.9-6.8,5.4-10.2C138.5,99.5,139,98.5,139,97.9L139,97.9z"/>
				<path class="st54" d="M71.8,97.9c0,0.1,0.4,1.3,0.5,1.3c0.1,0.4,1,0.4,1.4,0.5c1.1,0.1,1.8,0.5,2.9,0.8l4.4,1.3
					c0.4,0.1,1.1,0.1,1.3,0.5l-9.9-2.3c0.1,0.4,0.5,0.5,1,1c0.4,0.4,0.5,0.5,1,0.8l8.1,2.3c-0.1,0.1-0.5,0-1,0
					c-0.4,0-0.6-0.1-1.1-0.1c-1.9-0.4-3.9-0.8-5.9-0.8c0.1,0.4,1.3,1.8,1.6,1.9c0.6,0.1,5.8,0.5,7.1,0.8c0.5,0,1.3,0,1.6,0.1
					c0.1,0.1,0.6,0.8,0.6,1.1l-8.6-1.3l1.1,1.8c0.1,0.1,7.1,1,8.5,1.1c1.1,0.1,1.4,0.4,1.6,1.3l-8.5-1.1c0,0.5,0.1,1.3,0.4,1.6
					c0.1,0.1,0,0.1,0.1,0.1l9.7,0.5c-0.1,0.4-1.3,1-1.6,1.3c-0.5,0.4-1.9,0.1-2.8,0.1v-1c-0.5,0.1-0.8,0.4-1.3,0.4
					c-1,0-2.4,0-3.5-0.1c-1.1,0-1.6-1.8-2.5-2.3c-0.5-0.1-2.3-0.8-2.5-0.8c0.4,0.8,1.4,1.3,1.9,1.8c-1.6-0.5-3-1.8-4.4-2.4
					c-0.4,0.1-1,0.8-1.1,1c0.6,0.5,2.8,1.3,3.7,1.6c1.8,0.8,3,1,2.9,2.4l-5.6-2.3c0,1,0.1,1,1,1.3c0.5,0.4,1,0.5,1.6,0.8
					c1.1,0.5,2.3,1.1,3,1.6c0,1.6-0.4,1-1.1,1.8l0.5,1c0.4-0.1,1.3-1.3,1.6-1.6l1.6-1.6l-0.4-1.8c0.8,0,2.5,0.4,3.2,0.5
					c2.3,0.5,1.1,0.1,2.8,0c0.1,0.4,0.5,1.3,0.5,1.6c-1.6,1.1-3.7,1.8-5.8,2.8l-11.7,5.3c-1.8,0.8-1.3,1-2.9,0
					c-0.8-0.4-1.9-1.3-2.8-1.4c0.1-0.5,0.8-1,1-1.4c-0.8-0.1-1.4-0.8-2.3-1c0.1,0.4,0.1,0.1,0.4,0.5c-0.5,0.4-2.4,1.8-2.5,2.4
					c1.4,0.5,2.9,1.4,4.3,2.3c0.8,0.4,1.4,1,2.3,1.1c0.5,0.1,0.8,0,1.3-0.1l5.6-2.8c0.6-0.4,1.4-0.8,2.3-1.1
					c0.8-0.4,1.4-0.8,2.3-1.1c-0.8,0.5-2.5,1.4-3.2,1.8c-2.3,1.3-4.4,2.4-6.7,3.8c-1.1,0.5-2.4,1.1-3.5,1.8l1.4,3.7
					c0.6-0.1,10.9-7.3,12.6-8.5c-0.4,0.4-1.1,0.8-1.4,1.1c-0.5,0.4-1.1,0.8-1.6,1.1l-3,2.3c-2.3,1.4-4.2,3-6.2,4.4
					c0.1,0.4,2.8,3,3,3.2c0.5-0.4,1.1-1.1,1.6-1.6s1.1-1,1.4-1.4c2.9-2.9,5.8-5.8,8.6-8.5c0.5-0.4,0.5-0.8,0.8-0.4
					c-0.5,0.4-2.5,2.8-2.9,3c-1,1.1-1.8,1.9-2.9,3l-5.6,6.3c0.4,0.4,1.3,1,1.8,1.3s1.4,1.1,1.9,1.3c0.4-0.5,0.8-1.3,1.1-1.8
					c0.4-0.5,0.8-1.1,1.1-1.8c1-1.3,1.6-2.4,2.4-3.5c0.5-1,3.9-6.2,4.8-6.8l-8.5,14.6l5.4,1.8c0.4-0.8,3.9-12.5,4.8-14.4
					c0.4-1,1.3-4.2,1.6-4.8l-2.3,18.9l7.1-0.1c0.1-0.8,0.1-1.3,0.1-1.9c0.1-0.8,0.8-0.8,0.8-1.4l-2.8-0.1l-0.4,1.8l0,0
					c-0.8,0-2.3-0.1-2.9-0.4H87c0-1.8,0.4-3.8,0.5-5.4c0.4-3.7,0.8-7.2,1.1-10.9c0-0.5,0-1,0.1-1.4c0.1-0.8,1.4-2.3,1.9-2.8
					c0.1,0.1,0.8,2.9,1,3.5c0.1,1,0.4,2.8,0.1,3.8l-2.5,0.5l0.5,1h1.9c0,1.4-0.8,0.5,0.1,2.4c0.1,0.5,1,1.9,1.1,2.3h1.1
					c0-0.5-0.4-1.4-0.5-1.9c0.5,0.5,0.1,0.5,1,1c0.4,0.1,0.8,0.5,1.3,0.8c-0.1-1.4-1.4-2.4-1.4-2.9c0.5,0.1,1.8,1.8,2.5,1.9
					c-0.1-1.4-1.4-2.3-2.4-3c-0.6-0.5-1.1-0.8-1.1-1.6c0-1,0-1.6,0-2.5c0-1.3-1.1-4.4-1.1-5.6c0-0.5,1.6-1.9,1.8-2.3
					c0.4,0.4,3.7,9.1,4.3,10.9c0,0.1,0,0.1,0.1,0.4l0.1,0.4c0.1,0,2.5-1,2.5-1c-0.4-1.1-3.5-6.3-4.2-7.8c-0.4-0.8-1.4-1.8-0.5-2.5
					c0.4,1,1.4,2.3,1.9,3c0.5,1,5.4,8.5,5.9,9.2c0.1,0.1,0,0.1,0.1,0.1c0.5-0.1,1.3-0.8,1.6-1c-0.1-0.8-3.8-5.1-4.3-5.8l-3.2-4.2
					c-0.4-0.4-0.8-1.1-1.1-1.4c0.1-0.1,0.1-0.1,0.4-0.4c0.8,0.8,6.3,8.1,7.3,9.5c0.8,1,1.9,2.3,2.4,3.2c0.5,0,1.3-0.4,1.8-0.4
					c-0.1-0.4-6.8-8.3-8-9.6c-0.4-0.4-0.4-0.4,0-0.8c0.5,0,0.1-0.1,0.5,0.1l1,1c1.1,1.3,2.3,2.5,3.2,3.7c0.8,0.8,3.8,4.2,4.3,4.9
					h1.3c-0.4-1-6.7-7.8-7.1-8.5h1.4c1,0.8,1.6,1.8,2.4,2.5c0.8,1,1.4,1.6,2.3,2.5l3.5,3.8c0.5,0.5,0.5,1,1.4,1
					c0-0.5-1.6-1.9-2.3-2.5l-6.3-7.3c-0.6-0.8-1.6-1.6-2.5-2.4c-1-0.8-1.6-1.4-2.5-2.3c-1-0.8-0.4-0.4-1.8-0.5c-0.8,0-1.1-0.5-1.4-1
					c-0.8-0.8-1.8-1.3-1.8-2.8l0.4-0.4h1.1c1.1-1.3,0-1.3,1.1-2.4l5.1-5.8c0,0-0.1-0.4-0.8,0l-5.8,5.4c-0.5,0.5-0.5,0.4-1.4,0.4
					c-0.1,0.4-0.5,1-0.6,1.3c-0.4,0.8-0.5,0.5-1.3,1c-1.4-0.8-11-8.3-12.1-8.6c-2.3-0.8-4.4-1.3-6.8-1.8
					C74.2,98.5,72.8,98,71.8,97.9z"/>
				<path class="st5" d="M68,52.4h43.5V62h14v9.6c0.6,0.1,8.5,0,9.9,0c4.2,0,5.8-0.5,6.6,3c0.5,2.4,0,6.3-2.5,6.6
					c-1.6,0.1-3.5,0-5.1,0h-85c-1.6,0-9.2,0-9.9,0c-2.4-0.1-2.9-4.2-2.4-6.6c1-3.8,3-3,6.6-3c3.2,0,6.7,0,9.9,0V62
					c1-0.1,12.1,0,14,0L68,52.4L68,52.4z"/>
				<path class="st54" d="M119.9,72.7V77l-0.4,0.1c-0.4,0-1.4,0-1.8-0.1c-0.1-1,0-2.3,0-3s-0.1-1.1,0.5-1.1
					C118.6,72.5,119.5,72.5,119.9,72.7L119.9,72.7z M117.7,77.1c0,0.1,0.8,1.6,1,1.9c1.3,0,2.5,0,3.9,0c1.6,0,1.3-1,1.3-2.3
					c0-1.1,0-2.4,0-3.5c0-1,0.1-2.5-0.5-2.9c-0.5-0.1-2.3-0.1-2.9,0v1.8c-0.1-0.1,0,0.1-0.1-0.1c-0.1-0.4-0.5-1.3-1-1.6
					c-5.4-0.1-4.9,0-4.9,2.4c0,1.1,0,2.3,0,3.2c0,3.8-0.5,3.2,3.2,3.2v-2.5l0,0V77.1z"/>
				<path class="st54" d="M106,70.5h-5.3l-0.6,1.8v-1.8c-3.9-0.4-3.2,0.5-3.2,3.7c0,1.1,0,2.3,0,3c0,1.1-0.1,1.9,1.3,1.9
					c1.3,0,2.4,0,3.7,0c4.4,0,4.4,0.5,4.4-2.3c0-1,0.1-2.4,0-3h-3.8c-0.1,0.4-0.8,1.4-1,1.9c0.4,0,1.1,0,1.3,0.1c0,0.1,0,0.4,0,0.5
					c0,0.4,0,0.4-0.1,0.5c-0.4,0.1-1.6,0.1-2.3,0c-0.1-0.5,0-2.8-0.1-3.5c0-0.1,0-0.5,0-0.5c0-0.4,0-0.1,0.1-0.4
					c0.6-0.1,3.8,0,4.9,0L106,70.5z"/>
				<path class="st54" d="M71.3,72.4l-1-1.9c-5.3,0-4.9-0.4-4.9,2.4c0,1-0.1,5.9,0.4,6.3c0.8,0.1,2.3,0.1,2.9,0v-1.8
					c0.1,0.4,0.5,1.3,0.6,1.6c0.1,0,0.1,0,0.1,0.1h4.8h0.1c0-0.1,0-0.1,0.1,0V79c0-1.3,0-2.8,0-3.9s-0.1-2.9,0-3.8l-0.1-0.1
					c-0.1,0-0.1,0,0-0.1c-0.1,0-0.1,0-0.1,0h-2.8C71.4,71.6,71.4,72.1,71.3,72.4c0.1,1.1,0,0.8,0,1.1v3.8c-0.1,0.5-0.8,0.4-1.4,0.4
					c-0.1,0-0.5,0-0.5,0c-0.8,0-0.1,0-0.4-0.1c-0.3-0.1-0.1-0.8-0.1-1.1V74c0-0.1,0-0.4,0-0.5c0.1-0.8,1-0.8,1.9-0.5
					c0.8,0,0.1,0,0.4,0.1C71.3,72.5,71.3,73,71.3,72.4z"/>
				<path class="st54" d="M95,70.5h-7.7l-1,1.9h0.8V79h7.3l0.6-1.9h-4.8v-1.3h3.7c0.1-0.5,0.6-1.4,0.6-1.9H91
					c-0.4,0.5-0.5,1.3-1,1.6v-2.9h3.8L95,70.5z"/>
				<path class="st54" d="M59,72.7c1-0.4,2.5,0.1,3.5-0.1c0.4-0.1,0.4-0.5,0.6-1.1c0.1-0.4,0.4-0.8,0.4-1.3h-3.9l-0.8,1.9V70
					c-1,0-2.3-0.1-3,0c-0.5,1.1-0.4,5.9-0.1,7.7c0,1.4,1.6,1.1,3.2,1.1c1.4,0,2.9,0,4.3,0c0.1-0.4,0.8-1.6,0.8-1.9
					c-1.1-0.1-4.8,0.1-4.9-0.1v-0.5c0-0.1,0-0.4,0-0.5c0-0.4,0-0.8,0-1.1C58.9,74.1,58.8,73.1,59,72.7z"/>
				<path class="st54" d="M76.4,72.5c0.5,0,0.6,0,1,0.1v6.5h6.8l0.8-1.9h-4.3v-6.7h-3.2L76.4,72.5z"/>
				<path class="st54" d="M109.3,70.5c-0.4,0.1-0.4,0.1-0.4,0.5c-0.1,0.1-0.1,0.4-0.1,0.5c-0.1,0.4-0.4,0.8-0.5,1.1h1v6.6h3.5v-8.6
					C112.6,70.5,109.3,70.5,109.3,70.5z"/>
				<path class="st54" d="M86.3,58.2c0.1,0.1,0.1,0,0.1,0.8c0,0.4,0,0.5,0,1s0,1.3,0,1.8C86,61.9,86,61.7,86,62.6h4.4v-1.4h-1.1
					c0,0.5,0,0.8-0.1,0.8h-0.5c-0.8,0-0.4,0-0.5-0.1v-1.3h1.4v-1h-1.4v-1.3h1.3c0,1-0.1,0.8,1.3,0.8v-1.4h-4.6
					C85.9,58.3,85.9,58.2,86.3,58.2z"/>
				<path class="st54" d="M97.9,59.6v-0.4v-0.8v-0.2c1,0,1.3,0,1.3,0.8C99.2,59.6,98.9,59.7,97.9,59.6L97.9,59.6z M96.5,58.2
					c0.1,0.1,0.1,1.3,0.1,1.6c0,0.5,0,1.3,0,1.8h-0.4v0.5h2.4v-0.4c-0.5,0-0.5,0-0.5-1c0-0.5,0.1-0.5,0.1-0.5c0.5,0,1.8-0.1,2.3-0.4
					c1-0.5,0.6-2.4-0.5-2.4h-1.4c-0.4,0-1,0-1.3,0c-1,0-0.6-0.1-0.6,0.4L96.5,58.2z"/>
				<path class="st54" d="M78.6,58.3v2.9c-0.1,0.8-0.5-0.4-0.4,1h2.4c0-1.3-0.1-0.4-0.4-1v-2.9c0.1-0.5,0.5,0.4,0.4-1h-2.4
					C78.2,58.3,78.5,57.9,78.6,58.3z"/>
				<path class="st5" d="M89.2,151.7c0.4,0.5,1.4,0.4,2.3,0.8c0.6,0.4,1,1.3,0.1,1.8c-1,1-3.9,0.8-3.9-1H89c0.4,0.4,0.8,1.1,1.6,0.4
					c0-1.3-3.7-0.5-2.5-2.5c0.5-1,3.7-1.1,3.8,0.5c-1.8,0-1.1,0-1.4-0.1C89.9,151.2,89.3,151.2,89.2,151.7L89.2,151.7z"/>
				<path class="st5" d="M97,149.7c-1-0.1-1-0.5-1.6,0.1c-0.4,0.5,0.4,2.5,1.6,1.8c0.4-0.1,0.1-0.1,0.4-0.8c0-0.1,0-0.1,0.1-0.1h1.3
					c0,2.5-3.5,2.9-4.4,1c-0.8-1.3-0.4-2.3,0.8-2.8c1.3-0.8,1.9-0.5,3,0.1C97.8,149.6,97.8,149.3,97,149.7L97,149.7z"/>
				<path class="st5" d="M85.2,149.3l1.3,0.4c0,0.4-0.8,2.3-1,2.5c-0.4,1-1.3,1.3-2.5,1c-3-0.8-1.4-2.5-1-4.4l1.4,0.4
					c0,1.1-1.6,3-0.1,3.2C84.7,152.5,84.5,150.2,85.2,149.3L85.2,149.3z"/>
				<path class="st5" d="M99.2,148.2c0.1,1,1.4,2.3,2.9,1.8c1.1-0.1,2.5-1.1,2.3-2.4C103.5,144.3,98.5,145.8,99.2,148.2L99.2,148.2z
					"/>
				<ellipse class="st54" cx="101.7" cy="147.8" rx="1.4" ry="1.2"/>
				<path class="st5" d="M79,148.7c-0.5,0.1-1.1,0.4-1.4,0c-1-1,1.9-3.5,2.3-1l1.3,0.4c0.1-1.3-0.5-1.9-1.6-2.4
					c-1.4-0.5-2.4,0.4-2.9,1.1c-1.4,1.9,1.6,4.2,3.5,2.8L79,148.7L79,148.7z"/>
				<path class="st5" d="M116.1,52.9C116.1,52.9,115.9,52.9,116.1,52.9c0,0-0.1-0.1-0.4,0s-0.1,4.4-0.1,5.3c0,0.4,0,0.5,0.1,0.8
					c0,0.1,0,0.1,0,0h0.1c0.5,0.1-0.5,0,0.1,0h11.6v7.7l9.1,0.1c0.4,0,0.1,0,0.1,0c0.1,0,0.1,0,0.1,0c0.1,0,0.1,0.1,0.1-0.1
					c0-0.1,0,0,0-0.1s0-0.1,0,0c0,0,0,0-0.1,0h-0.6c-2.5,0-5.3,0-7.7,0c0-1,0.1-7.2,0-7.7c0-0.1,0-0.1,0,0h-0.1h-11.7
					c-0.1-1.1,0-4.3,0-5.3L116.1,52.9L116.1,52.9L116.1,52.9z M62.2,59.6c-1.4,0-11.5-0.1-12,0c-0.1,0.1-0.1,3.5-0.1,3.8
					c0,1.3,0,2.8,0,3.9h-6.7c-0.5,0-1.6-0.1-1.9,0.1c0,0.4,0.1,0.4,0.5,0.4c2.5,0,6.2,0,8.6,0c0.4-0.4,0.1-3,0.1-3.8
					c0-1.3,0-2.8,0-3.9c1.4,0,11.6,0,12,0c0.1-1,0.1-5.1,0-6.2c-0.8-0.1-0.5,0.4-0.5,1C62.2,55.9,62.2,58.9,62.2,59.6L62.2,59.6z
					 M74.7,90.8c0-1-0.1-1.6-0.1-2.5c0-0.5-0.1-1.1-0.8-1.4c-0.8-0.4-0.5-1.1,0.1-1.3c0.4-0.1,0.8-0.1,1.1-0.1c1.4,0.1,2.9,0,4.3,0
					c1,0,1.6,0.1,2.4,0.5c1.6,1,1.9,2.9,0.5,3.9c-0.4,0.4-0.8,0.5,0,1c1.1,0.4,1.3,1.3,1.4,2.3c0.1,0.5,0.1,1.1,1,1.4
					c0.8,0.4,0.4,1-0.1,1.3c-1.4,1-3.8,0.1-4.3-1.3c-0.4-0.8-0.5-1.4-0.6-2.3c-0.1-0.5-0.5-1-1.1-0.8c-0.5,0.2-0.4,0.8-0.4,1.1
					c0,0.8,0,1.4,0.8,1.9c0.5,0.4,0.1,1-0.4,1.1c-1.6,0.4-3.2,0.8-4.9-0.5c-0.1-0.1-0.1-0.1-0.4,0c-1.6,1.3-3.7,0.8-5.4,0.5
					c-0.5,0-1-0.8-0.1-1.1c0.1-0.1,0.5-0.4,0.4-0.8s-0.4-0.4-0.8-0.4c-0.8,0-1.4,0-2.4,0c-0.4,0-0.5,0-0.6,0.4s0,0.5,0.4,0.8
					c0.4,0.2,0.5,0.4,0.5,0.8s-0.4,0.5-0.8,0.5c-1.1,0.1-1.9,0.1-3,0c-0.4,0-0.5-0.1-0.5-0.5s0.1-0.5,0.4-0.8c0.6-0.1,1-0.8,1.3-1.3
					c0.8-2.3,2.3-4.2,2.3-6.6c0-1.1,1.4-1.4,2.5-1.1c0.6,0.4,1.1,1,1.6,1.6c1.1,1.8,1.9,3.7,2.9,5.4c0.1,0.4,0.4,0.8,0.5,1
					c0.1,0.8,1.1,1.3,1.4,1.1c0.5-0.1,1.1-1,1.1-1.6C74.7,92.3,74.7,91.4,74.7,90.8z M77.8,88.6c0.1,0.4-0.4,1.3,0.5,1.4
					c1,0,1.1-0.5,1.1-1.3s0-1.4-1-1.4C77.6,87.1,78.2,88.1,77.8,88.6z M66.2,91.4c0.4-0.1,1.1,0.4,1-0.4c-0.1-0.5-0.4-1.6-1.1-1.6
					c-0.6,0-0.8,1-1,1.4C65,91.9,66,91.3,66.2,91.4z M89.2,85.7c1.1,0,2.3-0.1,3.2,0c1,0.1,2.3,0.8,2.5,1.8c0.4,1.1,0.1,1.9-1,2.8
					c-0.5,0.4-0.4,0.5,0.1,0.8c0.6,0.4,1.3,1,1.4,1.6c0.1,0.8,0.1,1.4,1.1,1.9c0.5,0.4,0.1,1-0.4,1.1c-1.6,1-3.8,0.1-4.3-1.4
					c-0.1-0.8-0.4-1.4-0.8-1.9c-0.1-0.4-0.5-0.8-1.1-0.8c-0.5,0.1-0.4,0.5-0.4,1c0,0.8,0,1.4,0.8,1.9c0.5,0.4,0.4,1-0.4,1.1
					c-1.4,0.4-2.9,0.4-4.3,0c-0.8-0.1-1.1-0.8-0.1-1.3c0.5-0.4,0.5-1,0.5-1.4c0-1.4,0-3-0.1-4.4c0-0.5,0-1.1-0.5-1.3
					c-0.4-0.1-0.8-0.4-0.5-1c0.1-0.4,0.5-0.5,1.1-0.5C87.3,85.7,88.3,85.7,89.2,85.7z M89.8,88.6c0.4,0.4-0.5,1.3,0.5,1.3
					s1.1-0.5,1.1-1.3s0-1.6-1.1-1.4C89.3,87.1,90.1,88.1,89.8,88.6z M117.8,85.7c0.8-0.1,1.4,0.1,2.3,1c1.1,1.1,2.4,1.9,3.5,2.9
					c0.1,0.1,0.4,0.5,0.8,0.4s0.1-0.5,0.1-0.8c0-0.8,0-1.4-0.8-1.8c-0.6-0.4-0.5-1.1,0.4-1.3c1-0.1,1.9-0.1,2.9,0s1.1,1,0.4,1.3
					c-0.8,0.4-0.8,1.1-0.8,1.6c0,1.6,0.1,3.2,0.1,4.9c0,0.4,0,0.5,0,1s0,1.1-0.5,1.3c-0.5,0.4-1-0.1-1.4-0.5
					c-1.4-1.3-2.9-2.5-4.3-3.8c-0.1-0.1-0.5-0.5-1-0.4c-0.4,0.1-0.4,0.5-0.4,1c0,1,0,1.8,1,2.5c0.5,0.4,0.1,1-0.4,1.3
					c-1,0.4-1.8,0.1-2.5,0c-1.1-0.1-1.3-1-0.5-1.6c0.4-0.4,0.4-0.8,0.4-1.1c0.1-1.6,0-3-0.1-4.8c0-0.5-0.1-1.1-0.8-1.3
					c-0.4-0.1-1-0.5-0.5-1.1c0.1-0.5,0.8-0.5,1.1-0.5C116.8,85.7,117.2,85.7,117.8,85.7z M109.4,96.1c-3.2,0-5.6-2.4-5.6-5.4
					c0-2.9,2.4-5.1,5.4-5.1s5.8,2.5,5.8,5.6C114.8,94.1,112.5,96.1,109.4,96.1z M111.3,92.4c-0.1-1.4-0.5-2.8-1.4-3.9
					c-0.4-0.5-1-1-1.6-0.8c-0.8,0.1-1,1-1,1.4c0,1.4,0.5,2.8,1.3,3.8c0.4,0.5,1,1,1.6,0.8C111.1,93.7,111.1,92.9,111.3,92.4z
					 M50.2,90.8c0-3.8,3.9-6.3,7.3-4.9c0.4,0.1,0.5,0.1,1,0.1c1.6,0.1,2.8,1.9,1.8,3.2c-0.5,1-1.6,1-2.3,0c-0.4-0.5-0.5-1.1-1.1-1.4
					c-0.8-0.4-1.3-0.8-2.3-0.4s-1,1.1-1,1.8c0,2.4,1.4,3.9,3.5,3.8c0.8,0,1.3-0.1,1.8-0.5C59.7,92,60,92.4,60,93
					c0,0.8-0.1,1.4-0.8,1.6c-1.9,1-3.9,1.6-6.2,0.5C51.2,94.2,50.3,92.6,50.2,90.8z M100.3,96.1c-0.8,0-1.4,0-1.9-0.1
					c-0.8-0.1-1-0.8-0.4-1.3c0.1-0.1,0.5-0.4,0.5-0.8c0-1.8,0-3.7-0.1-5.4c0-0.5-0.4-0.8-0.8-1.1c-0.5-0.5-0.4-1,0.4-1.3
					c1.4-0.4,2.9-0.5,4.3-0.1c1.1,0.1,1.1,0.8,0.4,1.4c-0.4,0.4-0.5,0.8-0.5,1.1c0,1.6,0,3.2,0.1,4.9c0,0.5,0.1,1,0.8,1.1
					c0.8,0.5,0.5,1.1-0.4,1.4C101.7,96.1,100.9,96.1,100.3,96.1z M109.9,82.6c0.4,0,0.8,0.1,1.1,0.1c0.8,0.1,1,0.8,0.4,1.3
					c-0.8,0.8-1.4,1-2.4,1.1c-0.4,0-0.8,0-1-0.4c-0.1-0.4,0.1-0.5,0.4-0.8c0.1-0.1,0.4-0.4,0.4-0.5C108.6,82.6,109,82.6,109.9,82.6z
					"/>
			</g>
		</g>
	</g>
</g>
</svg>
